<svg width="233" height="247" viewBox="0 0 233 247" fill="none" xmlns="http://www.w3.org/2000/svg">
    <path
        d="M66.2523 234.768C3.22976 204.212 -12.8131 120.581 9.58879 73.6582L230.702 136.146C227.449 167.747 208.651 206.407 181.275 225.414C134.659 257.781 87.4981 245.069 66.2523 234.768Z"
        fill="#1B2B8A" />
    <circle cx="117.045" cy="115.955" r="109.977" fill="#1B2B8A" stroke="#FFD062"
        stroke-width="11.9571" />
    <circle cx="117.045" cy="115.955" r="114.162" stroke="black" stroke-width="3.58713" />
    <circle cx="117.599" cy="116.139" r="103.073" stroke="black" stroke-width="1.25939" />
    <g filter="url(#filter0_d_4_16)">
        <path
            d="M91.7629 158.408C85.2381 158.408 80.2628 156.573 76.8373 152.903C73.4117 149.151 71.6989 143.809 71.6989 136.876V91.8545C71.6989 84.9218 73.4117 79.6204 76.8373 75.9501C80.2628 72.1983 85.2381 70.3224 91.7629 70.3224C98.2878 70.3224 103.263 72.1983 106.689 75.9501C110.114 79.6204 111.827 84.9218 111.827 91.8545V99.195H99.1034V90.9981C99.1034 85.3704 96.7789 82.5566 92.13 82.5566C87.481 82.5566 85.1565 85.3704 85.1565 90.9981V137.855C85.1565 143.401 87.481 146.174 92.13 146.174C96.7789 146.174 99.1034 143.401 99.1034 137.855V121.094H92.3746V108.86H111.827V136.876C111.827 143.809 110.114 149.151 106.689 152.903C103.263 156.573 98.2878 158.408 91.7629 158.408ZM136.372 158.408C129.928 158.408 124.994 156.573 121.568 152.903C118.224 149.233 116.552 144.054 116.552 137.366V91.3652C116.552 84.6772 118.224 79.498 121.568 75.8278C124.994 72.1576 129.928 70.3224 136.372 70.3224C142.815 70.3224 147.709 72.1576 151.053 75.8278C154.478 79.498 156.191 84.6772 156.191 91.3652V100.418H143.467V90.5088C143.467 85.2073 141.225 82.5566 136.739 82.5566C132.253 82.5566 130.01 85.2073 130.01 90.5088V138.344C130.01 143.564 132.253 146.174 136.739 146.174C141.225 146.174 143.467 143.564 143.467 138.344V125.254H156.191V137.366C156.191 144.054 154.478 149.233 151.053 152.903C147.709 156.573 142.815 158.408 136.372 158.408Z"
            fill="#FFD062" />
        <path
            d="M76.8373 152.903L75.9542 153.709L75.9631 153.719L76.8373 152.903ZM76.8373 75.9501L77.7115 76.766L77.7203 76.7564L76.8373 75.9501ZM106.689 75.9501L105.806 76.7564L105.814 76.766L106.689 75.9501ZM111.827 99.195V100.391H113.023V99.195H111.827ZM99.1034 99.195H97.9077V100.391H99.1034V99.195ZM99.1034 121.094H100.299V119.898H99.1034V121.094ZM92.3746 121.094H91.1789V122.29H92.3746V121.094ZM92.3746 108.86V107.664H91.1789V108.86H92.3746ZM111.827 108.86H113.023V107.664H111.827V108.86ZM106.689 152.903L107.563 153.719L107.572 153.709L106.689 152.903ZM91.7629 157.213C85.4648 157.213 80.8481 155.448 77.7114 152.087L75.9631 153.719C79.6775 157.698 85.0113 159.604 91.7629 159.604V157.213ZM77.7203 152.097C74.5594 148.635 72.8946 143.62 72.8946 136.876H70.5032C70.5032 143.997 72.264 149.667 75.9543 153.709L77.7203 152.097ZM72.8946 136.876V91.8545H70.5032V136.876H72.8946ZM72.8946 91.8545C72.8946 85.1083 74.5602 80.1423 77.7114 76.766L75.9631 75.1343C72.2632 79.0985 70.5032 84.7354 70.5032 91.8545H72.8946ZM77.7203 76.7564C80.8589 73.3188 85.4726 71.5181 91.7629 71.5181V69.1267C85.0035 69.1267 79.6668 71.0778 75.9543 75.1439L77.7203 76.7564ZM91.7629 71.5181C98.0533 71.5181 102.667 73.3188 105.806 76.7564L107.572 75.1439C103.859 71.0778 98.5223 69.1267 91.7629 69.1267V71.5181ZM105.814 76.766C108.966 80.1423 110.631 85.1083 110.631 91.8545H113.023C113.023 84.7354 111.263 79.0985 107.563 75.1343L105.814 76.766ZM110.631 91.8545V99.195H113.023V91.8545H110.631ZM111.827 97.9993H99.1034V100.391H111.827V97.9993ZM100.299 99.195V90.9981H97.9077V99.195H100.299ZM100.299 90.9981C100.299 88.0496 99.6949 85.6159 98.2819 83.9054C96.8328 82.1513 94.7053 81.3609 92.13 81.3609V83.7523C94.2036 83.7523 95.5628 84.3688 96.4382 85.4285C97.3497 86.5319 97.9077 88.3189 97.9077 90.9981H100.299ZM92.13 81.3609C89.5546 81.3609 87.4271 82.1513 85.978 83.9054C84.565 85.6159 83.9608 88.0496 83.9608 90.9981H86.3522C86.3522 88.3189 86.9102 86.5319 87.8217 85.4285C88.6971 84.3688 90.0564 83.7523 92.13 83.7523V81.3609ZM83.9608 90.9981V137.855H86.3522V90.9981H83.9608ZM83.9608 137.855C83.9608 140.766 84.5664 143.172 85.9835 144.862C87.4345 146.593 89.5603 147.37 92.13 147.37V144.978C90.0506 144.978 88.6897 144.368 87.8162 143.326C86.9088 142.244 86.3522 140.49 86.3522 137.855H83.9608ZM92.13 147.37C94.6996 147.37 96.8254 146.593 98.2764 144.862C99.6935 143.172 100.299 140.766 100.299 137.855H97.9077C97.9077 140.49 97.3511 142.244 96.4437 143.326C95.5702 144.368 94.2093 144.978 92.13 144.978V147.37ZM100.299 137.855V121.094H97.9077V137.855H100.299ZM99.1034 119.898H92.3746V122.29H99.1034V119.898ZM93.5704 121.094V108.86H91.1789V121.094H93.5704ZM92.3746 110.056H111.827V107.664H92.3746V110.056ZM110.631 108.86V136.876H113.023V108.86H110.631ZM110.631 136.876C110.631 143.62 108.966 148.635 105.806 152.097L107.572 153.709C111.262 149.667 113.023 143.997 113.023 136.876H110.631ZM105.814 152.087C102.678 155.448 98.0611 157.213 91.7629 157.213V159.604C98.5146 159.604 103.848 157.698 107.563 153.719L105.814 152.087ZM121.568 152.903L120.685 153.708L120.689 153.714L120.694 153.719L121.568 152.903ZM121.568 75.8278L120.694 75.0119L120.689 75.0172L120.685 75.0225L121.568 75.8278ZM151.053 75.8278L150.169 76.6331L150.174 76.6384L150.179 76.6437L151.053 75.8278ZM156.191 100.418V101.614H157.387V100.418H156.191ZM143.467 100.418H142.272V101.614H143.467V100.418ZM143.467 125.254V124.058H142.272V125.254H143.467ZM156.191 125.254H157.387V124.058H156.191V125.254ZM151.053 152.903L150.179 152.087L150.174 152.092L150.169 152.098L151.053 152.903ZM136.372 157.213C130.16 157.213 125.582 155.451 122.443 152.087L120.694 153.719C124.406 157.696 129.696 159.604 136.372 159.604V157.213ZM122.452 152.098C119.37 148.714 117.748 143.861 117.748 137.366H115.357C115.357 144.247 117.079 149.751 120.685 153.708L122.452 152.098ZM117.748 137.366V91.3652H115.357V137.366H117.748ZM117.748 91.3652C117.748 84.8701 119.37 80.0162 122.452 76.6331L120.685 75.0225C117.079 78.9799 115.357 84.4842 115.357 91.3652H117.748ZM122.443 76.6437C125.582 73.2799 130.16 71.5181 136.372 71.5181V69.1267C129.696 69.1267 124.406 71.0352 120.694 75.0119L122.443 76.6437ZM136.372 71.5181C142.585 71.5181 147.114 73.2804 150.169 76.6331L151.937 75.0225C148.303 71.0347 143.045 69.1267 136.372 69.1267V71.5181ZM150.179 76.6437C153.337 80.0273 154.995 84.8771 154.995 91.3652H157.387C157.387 84.4772 155.62 78.9688 151.927 75.0119L150.179 76.6437ZM154.995 91.3652V100.418H157.387V91.3652H154.995ZM156.191 99.2227H143.467V101.614H156.191V99.2227ZM144.663 100.418V90.5088H142.272V100.418H144.663ZM144.663 90.5088C144.663 87.718 144.077 85.402 142.698 83.7723C141.287 82.1043 139.223 81.3609 136.739 81.3609V83.7523C138.74 83.7523 140.041 84.3342 140.873 85.317C141.736 86.338 142.272 87.9981 142.272 90.5088H144.663ZM136.739 81.3609C134.254 81.3609 132.191 82.1043 130.779 83.7723C129.4 85.402 128.814 87.718 128.814 90.5088H131.206C131.206 87.9981 131.741 86.338 132.605 85.317C133.437 84.3342 134.737 83.7523 136.739 83.7523V81.3609ZM128.814 90.5088V138.344H131.206V90.5088H128.814ZM128.814 138.344C128.814 141.098 129.402 143.386 130.785 144.996C132.198 146.64 134.26 147.37 136.739 147.37V144.978C134.731 144.978 133.429 144.403 132.599 143.437C131.739 142.437 131.206 140.811 131.206 138.344H128.814ZM136.739 147.37C139.217 147.37 141.279 146.64 142.692 144.996C144.075 143.386 144.663 141.098 144.663 138.344H142.272C142.272 140.811 141.738 142.437 140.878 143.437C140.049 144.403 138.746 144.978 136.739 144.978V147.37ZM144.663 138.344V125.254H142.272V138.344H144.663ZM143.467 126.449H156.191V124.058H143.467V126.449ZM154.995 125.254V137.366H157.387V125.254H154.995ZM154.995 137.366C154.995 143.854 153.337 148.703 150.179 152.087L151.927 153.719C155.62 149.762 157.387 144.254 157.387 137.366H154.995ZM150.169 152.098C147.114 155.45 142.585 157.213 136.372 157.213V159.604C143.045 159.604 148.303 157.696 151.937 153.708L150.169 152.098Z"
            fill="black" />
    </g>
    <defs>
        <filter id="filter0_d_4_16" x="71.6989" y="70.3224" width="84.4921" height="91.673"
            filterUnits="userSpaceOnUse" color-interpolation-filters="sRGB">
            <feFlood flood-opacity="0" result="BackgroundImageFix" />
            <feColorMatrix in="SourceAlpha" type="matrix"
                values="0 0 0 0 0 0 0 0 0 0 0 0 0 0 0 0 0 0 127 0" result="hardAlpha" />
            <feOffset dy="3.58713" />
            <feComposite in2="hardAlpha" operator="out" />
            <feColorMatrix type="matrix" values="0 0 0 0 0 0 0 0 0 0 0 0 0 0 0 0 0 0 1 0" />
            <feBlend mode="normal" in2="BackgroundImageFix" result="effect1_dropShadow_4_16" />
            <feBlend mode="normal" in="SourceGraphic" in2="effect1_dropShadow_4_16" result="shape" />
        </filter>
    </defs>
</svg>
    