<svg width="20" height="21" viewBox="0 0 20 21" fill="none" xmlns="http://www.w3.org/2000/svg">
    <path fill-rule="evenodd" clip-rule="evenodd"
        d="M4.29279 4.79357C4.48031 4.6061 4.73462 4.50078 4.99979 4.50078C5.26495 4.50078 5.51926 4.6061 5.70679 4.79357L9.99979 9.08657L14.2928 4.79357C14.385 4.69806 14.4954 4.62188 14.6174 4.56947C14.7394 4.51706 14.8706 4.48947 15.0034 4.48832C15.1362 4.48717 15.2678 4.51247 15.3907 4.56275C15.5136 4.61303 15.6253 4.68728 15.7192 4.78117C15.8131 4.87507 15.8873 4.98672 15.9376 5.10962C15.9879 5.23251 16.0132 5.36419 16.012 5.49697C16.0109 5.62975 15.9833 5.76097 15.9309 5.88297C15.8785 6.00498 15.8023 6.11532 15.7068 6.20757L11.4138 10.5006L15.7068 14.7936C15.8889 14.9822 15.9897 15.2348 15.9875 15.497C15.9852 15.7592 15.88 16.01 15.6946 16.1954C15.5092 16.3808 15.2584 16.486 14.9962 16.4882C14.734 16.4905 14.4814 16.3897 14.2928 16.2076L9.99979 11.9146L5.70679 16.2076C5.51818 16.3897 5.26558 16.4905 5.00339 16.4882C4.74119 16.486 4.49038 16.3808 4.30497 16.1954C4.11956 16.01 4.01439 15.7592 4.01211 15.497C4.00983 15.2348 4.11063 14.9822 4.29279 14.7936L8.58579 10.5006L4.29279 6.20757C4.10532 6.02004 4 5.76573 4 5.50057C4 5.23541 4.10532 4.9811 4.29279 4.79357Z"
        fill="#1B2E8A" />
</svg>
    