<svg width="252" height="105" viewBox="0 0 252 105" fill="none" xmlns="http://www.w3.org/2000/svg">
    <path
        d="M19.0213 27.1477H17.2486C17.1804 26.7689 17.0535 26.4356 16.8679 26.1477C16.6823 25.8598 16.455 25.6155 16.1861 25.4148C15.9171 25.214 15.616 25.0625 15.2827 24.9602C14.9531 24.858 14.6027 24.8068 14.2315 24.8068C13.5611 24.8068 12.9607 24.9754 12.4304 25.3125C11.9039 25.6496 11.4872 26.1439 11.1804 26.7955C10.8774 27.447 10.7259 28.2424 10.7259 29.1818C10.7259 30.1288 10.8774 30.928 11.1804 31.5795C11.4872 32.2311 11.9058 32.7235 12.4361 33.0568C12.9664 33.3902 13.563 33.5568 14.2259 33.5568C14.5933 33.5568 14.9418 33.5076 15.2713 33.4091C15.6046 33.3068 15.9058 33.1572 16.1747 32.9602C16.4437 32.7633 16.6709 32.5227 16.8565 32.2386C17.0459 31.9508 17.1766 31.6212 17.2486 31.25L19.0213 31.2557C18.9266 31.8277 18.7429 32.3542 18.4702 32.8352C18.2012 33.3125 17.8546 33.7254 17.4304 34.0739C17.0099 34.4186 16.5289 34.6856 15.9872 34.875C15.4455 35.0644 14.8546 35.1591 14.2145 35.1591C13.2069 35.1591 12.3092 34.9205 11.5213 34.4432C10.7334 33.9621 10.1122 33.2746 9.65767 32.3807C9.20691 31.4867 8.98153 30.4205 8.98153 29.1818C8.98153 27.9394 9.20881 26.8731 9.66335 25.983C10.1179 25.089 10.7391 24.4034 11.527 23.9261C12.3149 23.4451 13.2107 23.2045 14.2145 23.2045C14.8319 23.2045 15.4077 23.2936 15.9418 23.4716C16.4796 23.6458 16.9626 23.9034 17.3906 24.2443C17.8187 24.5814 18.1728 24.9943 18.4531 25.483C18.7334 25.9678 18.9228 26.5227 19.0213 27.1477ZM22.6847 23.3636V35H20.9858V23.3636H22.6847ZM24.9702 35V26.2727H26.669V35H24.9702ZM25.8281 24.9261C25.5327 24.9261 25.2789 24.8277 25.0668 24.6307C24.8584 24.4299 24.7543 24.1913 24.7543 23.9148C24.7543 23.6345 24.8584 23.3958 25.0668 23.1989C25.2789 22.9981 25.5327 22.8977 25.8281 22.8977C26.1236 22.8977 26.3755 22.9981 26.5838 23.1989C26.7959 23.3958 26.902 23.6345 26.902 23.9148C26.902 24.1913 26.7959 24.4299 26.5838 24.6307C26.3755 24.8277 26.1236 24.9261 25.8281 24.9261ZM32.6307 35.1761C31.786 35.1761 31.0587 34.9848 30.4489 34.6023C29.8428 34.2159 29.3769 33.6837 29.0511 33.0057C28.7254 32.3277 28.5625 31.5511 28.5625 30.6761C28.5625 29.7898 28.7292 29.0076 29.0625 28.3295C29.3958 27.6477 29.8655 27.1155 30.4716 26.733C31.0777 26.3504 31.7917 26.1591 32.6136 26.1591C33.2765 26.1591 33.8674 26.2822 34.3864 26.5284C34.9053 26.7708 35.3239 27.1117 35.642 27.5511C35.964 27.9905 36.1553 28.5038 36.2159 29.0909H34.5625C34.4716 28.6818 34.2633 28.3295 33.9375 28.0341C33.6155 27.7386 33.1837 27.5909 32.642 27.5909C32.1686 27.5909 31.7538 27.7159 31.3977 27.9659C31.0455 28.2121 30.7708 28.5644 30.5739 29.0227C30.3769 29.4773 30.2784 30.0152 30.2784 30.6364C30.2784 31.2727 30.375 31.822 30.5682 32.2841C30.7614 32.7462 31.0341 33.1042 31.3864 33.358C31.7424 33.6117 32.161 33.7386 32.642 33.7386C32.964 33.7386 33.2557 33.6799 33.517 33.5625C33.7822 33.4413 34.0038 33.2689 34.1818 33.0455C34.3636 32.822 34.4905 32.553 34.5625 32.2386H36.2159C36.1553 32.803 35.9716 33.3068 35.6648 33.75C35.358 34.1932 34.947 34.5417 34.4318 34.7955C33.9205 35.0492 33.3201 35.1761 32.6307 35.1761ZM39.5952 32.0398L39.5838 29.9659H39.8793L43.3565 26.2727H45.3906L41.4247 30.4773H41.1577L39.5952 32.0398ZM38.0327 35V23.3636H39.7315V35H38.0327ZM43.544 35L40.419 30.8523L41.5895 29.6648L45.6293 35H43.544ZM60.9744 27.1477H59.2017C59.1335 26.7689 59.0066 26.4356 58.821 26.1477C58.6354 25.8598 58.4081 25.6155 58.1392 25.4148C57.8703 25.214 57.5691 25.0625 57.2358 24.9602C56.9063 24.858 56.5559 24.8068 56.1847 24.8068C55.5142 24.8068 54.9138 24.9754 54.3835 25.3125C53.857 25.6496 53.4403 26.1439 53.1335 26.7955C52.8305 27.447 52.679 28.2424 52.679 29.1818C52.679 30.1288 52.8305 30.928 53.1335 31.5795C53.4403 32.2311 53.8589 32.7235 54.3892 33.0568C54.9195 33.3902 55.5161 33.5568 56.179 33.5568C56.5464 33.5568 56.8949 33.5076 57.2244 33.4091C57.5578 33.3068 57.8589 33.1572 58.1278 32.9602C58.3968 32.7633 58.6241 32.5227 58.8097 32.2386C58.9991 31.9508 59.1297 31.6212 59.2017 31.25L60.9744 31.2557C60.8797 31.8277 60.696 32.3542 60.4233 32.8352C60.1544 33.3125 59.8078 33.7254 59.3835 34.0739C58.9631 34.4186 58.482 34.6856 57.9403 34.875C57.3987 35.0644 56.8078 35.1591 56.1676 35.1591C55.16 35.1591 54.2623 34.9205 53.4744 34.4432C52.6866 33.9621 52.0653 33.2746 51.6108 32.3807C51.16 31.4867 50.9347 30.4205 50.9347 29.1818C50.9347 27.9394 51.1619 26.8731 51.6165 25.983C52.071 25.089 52.6922 24.4034 53.4801 23.9261C54.268 23.4451 55.1638 23.2045 56.1676 23.2045C56.785 23.2045 57.3608 23.2936 57.8949 23.4716C58.4328 23.6458 58.9157 23.9034 59.3438 24.2443C59.7718 24.5814 60.1259 24.9943 60.4062 25.483C60.6866 25.9678 60.8759 26.5227 60.9744 27.1477ZM66.6151 35.1761C65.7969 35.1761 65.0829 34.9886 64.473 34.6136C63.8632 34.2386 63.3897 33.714 63.0526 33.0398C62.7154 32.3655 62.5469 31.5777 62.5469 30.6761C62.5469 29.7708 62.7154 28.9792 63.0526 28.3011C63.3897 27.6231 63.8632 27.0966 64.473 26.7216C65.0829 26.3466 65.7969 26.1591 66.6151 26.1591C67.4332 26.1591 68.1473 26.3466 68.7571 26.7216C69.367 27.0966 69.8404 27.6231 70.1776 28.3011C70.5147 28.9792 70.6832 29.7708 70.6832 30.6761C70.6832 31.5777 70.5147 32.3655 70.1776 33.0398C69.8404 33.714 69.367 34.2386 68.7571 34.6136C68.1473 34.9886 67.4332 35.1761 66.6151 35.1761ZM66.6207 33.75C67.151 33.75 67.5904 33.6098 67.9389 33.3295C68.2874 33.0492 68.545 32.6761 68.7116 32.2102C68.8821 31.7443 68.9673 31.2311 68.9673 30.6705C68.9673 30.1136 68.8821 29.6023 68.7116 29.1364C68.545 28.6667 68.2874 28.2898 67.9389 28.0057C67.5904 27.7216 67.151 27.5795 66.6207 27.5795C66.0866 27.5795 65.6435 27.7216 65.2912 28.0057C64.9427 28.2898 64.6832 28.6667 64.5128 29.1364C64.3461 29.6023 64.2628 30.1136 64.2628 30.6705C64.2628 31.2311 64.3461 31.7443 64.5128 32.2102C64.6832 32.6761 64.9427 33.0492 65.2912 33.3295C65.6435 33.6098 66.0866 33.75 66.6207 33.75ZM74.2784 29.8182V35H72.5795V26.2727H74.2102V27.6932H74.3182C74.5189 27.2311 74.8333 26.8598 75.2614 26.5795C75.6932 26.2992 76.2367 26.1591 76.892 26.1591C77.4867 26.1591 78.0076 26.2841 78.4545 26.5341C78.9015 26.7803 79.2481 27.1477 79.4943 27.6364C79.7405 28.125 79.8636 28.7292 79.8636 29.4489V35H78.1648V29.6534C78.1648 29.0208 78 28.5265 77.6705 28.1705C77.3409 27.8106 76.8883 27.6307 76.3125 27.6307C75.9186 27.6307 75.5682 27.7159 75.2614 27.8864C74.9583 28.0568 74.7178 28.3068 74.5398 28.6364C74.3655 28.9621 74.2784 29.3561 74.2784 29.8182ZM83.8409 29.8182V35H82.142V26.2727H83.7727V27.6932H83.8807C84.0814 27.2311 84.3958 26.8598 84.8239 26.5795C85.2557 26.2992 85.7992 26.1591 86.4545 26.1591C87.0492 26.1591 87.5701 26.2841 88.017 26.5341C88.464 26.7803 88.8106 27.1477 89.0568 27.6364C89.303 28.125 89.4261 28.7292 89.4261 29.4489V35H87.7273V29.6534C87.7273 29.0208 87.5625 28.5265 87.233 28.1705C86.9034 27.8106 86.4508 27.6307 85.875 27.6307C85.4811 27.6307 85.1307 27.7159 84.8239 27.8864C84.5208 28.0568 84.2803 28.3068 84.1023 28.6364C83.928 28.9621 83.8409 29.3561 83.8409 29.8182ZM95.4659 35.1761C94.6061 35.1761 93.8655 34.9924 93.2443 34.625C92.6269 34.2538 92.1496 33.733 91.8125 33.0625C91.4792 32.3883 91.3125 31.5985 91.3125 30.6932C91.3125 29.7992 91.4792 29.0114 91.8125 28.3295C92.1496 27.6477 92.6193 27.1155 93.2216 26.733C93.8277 26.3504 94.536 26.1591 95.3466 26.1591C95.839 26.1591 96.3163 26.2405 96.7784 26.4034C97.2405 26.5663 97.6553 26.822 98.0227 27.1705C98.3902 27.5189 98.6799 27.9716 98.892 28.5284C99.1042 29.0814 99.2102 29.7538 99.2102 30.5455V31.1477H92.2727V29.875H97.5455C97.5455 29.428 97.4545 29.0322 97.2727 28.6875C97.0909 28.339 96.8352 28.0644 96.5057 27.8636C96.1799 27.6629 95.7973 27.5625 95.358 27.5625C94.8807 27.5625 94.464 27.6799 94.108 27.9148C93.7557 28.1458 93.483 28.4489 93.2898 28.8239C93.1004 29.1951 93.0057 29.5985 93.0057 30.0341V31.0284C93.0057 31.6117 93.108 32.108 93.3125 32.517C93.5208 32.9261 93.8106 33.2386 94.1818 33.4545C94.553 33.6667 94.9867 33.7727 95.483 33.7727C95.8049 33.7727 96.0985 33.7273 96.3636 33.6364C96.6288 33.5417 96.858 33.4015 97.0511 33.2159C97.2443 33.0303 97.392 32.8011 97.4943 32.5284L99.1023 32.8182C98.9735 33.2917 98.7424 33.7064 98.4091 34.0625C98.0795 34.4148 97.6648 34.6894 97.1648 34.8864C96.6686 35.0795 96.1023 35.1761 95.4659 35.1761ZM104.771 35.1761C103.927 35.1761 103.199 34.9848 102.589 34.6023C101.983 34.2159 101.518 33.6837 101.192 33.0057C100.866 32.3277 100.703 31.5511 100.703 30.6761C100.703 29.7898 100.87 29.0076 101.203 28.3295C101.536 27.6477 102.006 27.1155 102.612 26.733C103.218 26.3504 103.932 26.1591 104.754 26.1591C105.417 26.1591 106.008 26.2822 106.527 26.5284C107.046 26.7708 107.464 27.1117 107.783 27.5511C108.105 27.9905 108.296 28.5038 108.357 29.0909H106.703C106.612 28.6818 106.404 28.3295 106.078 28.0341C105.756 27.7386 105.324 27.5909 104.783 27.5909C104.309 27.5909 103.894 27.7159 103.538 27.9659C103.186 28.2121 102.911 28.5644 102.714 29.0227C102.518 29.4773 102.419 30.0152 102.419 30.6364C102.419 31.2727 102.516 31.822 102.709 32.2841C102.902 32.7462 103.175 33.1042 103.527 33.358C103.883 33.6117 104.302 33.7386 104.783 33.7386C105.105 33.7386 105.396 33.6799 105.658 33.5625C105.923 33.4413 106.144 33.2689 106.322 33.0455C106.504 32.822 106.631 32.553 106.703 32.2386H108.357C108.296 32.803 108.112 33.3068 107.805 33.75C107.499 34.1932 107.088 34.5417 106.572 34.7955C106.061 35.0492 105.461 35.1761 104.771 35.1761ZM114.247 26.2727V27.6364H109.48V26.2727H114.247ZM110.759 24.1818H112.457V32.4375C112.457 32.767 112.507 33.0152 112.605 33.1818C112.704 33.3447 112.83 33.4564 112.986 33.517C113.145 33.5739 113.317 33.6023 113.503 33.6023C113.639 33.6023 113.759 33.5928 113.861 33.5739C113.963 33.5549 114.043 33.5398 114.099 33.5284L114.406 34.9318C114.308 34.9697 114.168 35.0076 113.986 35.0455C113.804 35.0871 113.577 35.1098 113.304 35.1136C112.857 35.1212 112.44 35.0417 112.054 34.875C111.668 34.7083 111.355 34.4508 111.116 34.1023C110.878 33.7538 110.759 33.3163 110.759 32.7898V24.1818ZM124.435 26.2727V27.6364H119.668V26.2727H124.435ZM120.946 24.1818H122.645V32.4375C122.645 32.767 122.694 33.0152 122.793 33.1818C122.891 33.3447 123.018 33.4564 123.173 33.517C123.332 33.5739 123.505 33.6023 123.69 33.6023C123.827 33.6023 123.946 33.5928 124.048 33.5739C124.151 33.5549 124.23 33.5398 124.287 33.5284L124.594 34.9318C124.495 34.9697 124.355 35.0076 124.173 35.0455C123.991 35.0871 123.764 35.1098 123.491 35.1136C123.045 35.1212 122.628 35.0417 122.241 34.875C121.855 34.7083 121.543 34.4508 121.304 34.1023C121.065 33.7538 120.946 33.3163 120.946 32.7898V24.1818ZM129.896 35.1761C129.078 35.1761 128.364 34.9886 127.754 34.6136C127.144 34.2386 126.671 33.714 126.334 33.0398C125.997 32.3655 125.828 31.5777 125.828 30.6761C125.828 29.7708 125.997 28.9792 126.334 28.3011C126.671 27.6231 127.144 27.0966 127.754 26.7216C128.364 26.3466 129.078 26.1591 129.896 26.1591C130.714 26.1591 131.429 26.3466 132.038 26.7216C132.648 27.0966 133.122 27.6231 133.459 28.3011C133.796 28.9792 133.964 29.7708 133.964 30.6761C133.964 31.5777 133.796 32.3655 133.459 33.0398C133.122 33.714 132.648 34.2386 132.038 34.6136C131.429 34.9886 130.714 35.1761 129.896 35.1761ZM129.902 33.75C130.432 33.75 130.872 33.6098 131.22 33.3295C131.569 33.0492 131.826 32.6761 131.993 32.2102C132.163 31.7443 132.249 31.2311 132.249 30.6705C132.249 30.1136 132.163 29.6023 131.993 29.1364C131.826 28.6667 131.569 28.2898 131.22 28.0057C130.872 27.7216 130.432 27.5795 129.902 27.5795C129.368 27.5795 128.925 27.7216 128.572 28.0057C128.224 28.2898 127.964 28.6667 127.794 29.1364C127.627 29.6023 127.544 30.1136 127.544 30.6705C127.544 31.2311 127.627 31.7443 127.794 32.2102C127.964 32.6761 128.224 33.0492 128.572 33.3295C128.925 33.6098 129.368 33.75 129.902 33.75ZM141.794 23.3636V35H140.095V23.3636H141.794ZM147.756 35.1761C146.938 35.1761 146.223 34.9886 145.614 34.6136C145.004 34.2386 144.53 33.714 144.193 33.0398C143.856 32.3655 143.688 31.5777 143.688 30.6761C143.688 29.7708 143.856 28.9792 144.193 28.3011C144.53 27.6231 145.004 27.0966 145.614 26.7216C146.223 26.3466 146.938 26.1591 147.756 26.1591C148.574 26.1591 149.288 26.3466 149.898 26.7216C150.508 27.0966 150.981 27.6231 151.318 28.3011C151.655 28.9792 151.824 29.7708 151.824 30.6761C151.824 31.5777 151.655 32.3655 151.318 33.0398C150.981 33.714 150.508 34.2386 149.898 34.6136C149.288 34.9886 148.574 35.1761 147.756 35.1761ZM147.761 33.75C148.292 33.75 148.731 33.6098 149.08 33.3295C149.428 33.0492 149.686 32.6761 149.852 32.2102C150.023 31.7443 150.108 31.2311 150.108 30.6705C150.108 30.1136 150.023 29.6023 149.852 29.1364C149.686 28.6667 149.428 28.2898 149.08 28.0057C148.731 27.7216 148.292 27.5795 147.761 27.5795C147.227 27.5795 146.784 27.7216 146.432 28.0057C146.083 28.2898 145.824 28.6667 145.653 29.1364C145.487 29.6023 145.403 30.1136 145.403 30.6705C145.403 31.2311 145.487 31.7443 145.653 32.2102C145.824 32.6761 146.083 33.0492 146.432 33.3295C146.784 33.6098 147.227 33.75 147.761 33.75ZM157.379 38.4545C156.686 38.4545 156.089 38.3636 155.589 38.1818C155.093 38 154.688 37.7595 154.374 37.4602C154.059 37.161 153.824 36.8333 153.669 36.4773L155.129 35.875C155.232 36.0417 155.368 36.2178 155.538 36.4034C155.713 36.5928 155.947 36.7538 156.243 36.8864C156.542 37.0189 156.927 37.0852 157.396 37.0852C158.04 37.0852 158.572 36.928 158.993 36.6136C159.413 36.303 159.624 35.8068 159.624 35.125V33.4091H159.516C159.413 33.5947 159.266 33.8011 159.072 34.0284C158.883 34.2557 158.622 34.4527 158.288 34.6193C157.955 34.786 157.521 34.8693 156.987 34.8693C156.298 34.8693 155.677 34.7083 155.124 34.3864C154.574 34.0606 154.139 33.5814 153.817 32.9489C153.499 32.3125 153.339 31.5303 153.339 30.6023C153.339 29.6742 153.497 28.8788 153.811 28.2159C154.129 27.553 154.565 27.0455 155.118 26.6932C155.671 26.3371 156.298 26.1591 156.999 26.1591C157.54 26.1591 157.978 26.25 158.311 26.4318C158.644 26.6098 158.904 26.8182 159.089 27.0568C159.279 27.2955 159.425 27.5057 159.527 27.6875H159.652V26.2727H161.317V35.1932C161.317 35.9432 161.143 36.5587 160.794 37.0398C160.446 37.5208 159.974 37.8769 159.379 38.108C158.788 38.339 158.122 38.4545 157.379 38.4545ZM157.362 33.4602C157.851 33.4602 158.264 33.3466 158.601 33.1193C158.942 32.8883 159.199 32.5587 159.374 32.1307C159.552 31.6989 159.641 31.1818 159.641 30.5795C159.641 29.9924 159.554 29.4754 159.379 29.0284C159.205 28.5814 158.949 28.233 158.612 27.983C158.275 27.7292 157.858 27.6023 157.362 27.6023C156.851 27.6023 156.425 27.7348 156.084 28C155.743 28.2614 155.485 28.6174 155.311 29.0682C155.141 29.5189 155.055 30.0227 155.055 30.5795C155.055 31.1515 155.143 31.6534 155.317 32.0852C155.491 32.517 155.749 32.8542 156.089 33.0966C156.434 33.339 156.858 33.4602 157.362 33.4602ZM163.595 35V26.2727H165.294V35H163.595ZM164.453 24.9261C164.158 24.9261 163.904 24.8277 163.692 24.6307C163.483 24.4299 163.379 24.1913 163.379 23.9148C163.379 23.6345 163.483 23.3958 163.692 23.1989C163.904 22.9981 164.158 22.8977 164.453 22.8977C164.749 22.8977 165 22.9981 165.209 23.1989C165.421 23.3958 165.527 23.6345 165.527 23.9148C165.527 24.1913 165.421 24.4299 165.209 24.6307C165 24.8277 164.749 24.9261 164.453 24.9261ZM169.278 29.8182V35H167.58V26.2727H169.21V27.6932H169.318C169.519 27.2311 169.833 26.8598 170.261 26.5795C170.693 26.2992 171.237 26.1591 171.892 26.1591C172.487 26.1591 173.008 26.2841 173.455 26.5341C173.902 26.7803 174.248 27.1477 174.494 27.6364C174.741 28.125 174.864 28.7292 174.864 29.4489V35H173.165V29.6534C173.165 29.0208 173 28.5265 172.67 28.1705C172.341 27.8106 171.888 27.6307 171.312 27.6307C170.919 27.6307 170.568 27.7159 170.261 27.8864C169.958 28.0568 169.718 28.3068 169.54 28.6364C169.366 28.9621 169.278 29.3561 169.278 29.8182ZM183.916 35.1932C183.363 35.1932 182.863 35.0909 182.416 34.8864C181.969 34.678 181.615 34.3769 181.354 33.983C181.096 33.589 180.967 33.1061 180.967 32.5341C180.967 32.0417 181.062 31.6364 181.251 31.3182C181.441 31 181.696 30.7481 182.018 30.5625C182.34 30.3769 182.7 30.2367 183.098 30.142C183.496 30.0473 183.901 29.9754 184.314 29.9261C184.837 29.8655 185.261 29.8163 185.587 29.7784C185.912 29.7367 186.149 29.6705 186.297 29.5795C186.445 29.4886 186.518 29.3409 186.518 29.1364V29.0966C186.518 28.6004 186.378 28.2159 186.098 27.9432C185.821 27.6705 185.409 27.5341 184.859 27.5341C184.287 27.5341 183.837 27.661 183.507 27.9148C183.181 28.1648 182.956 28.4432 182.831 28.75L181.234 28.3864C181.424 27.8561 181.7 27.428 182.064 27.1023C182.431 26.7727 182.854 26.5341 183.331 26.3864C183.808 26.2348 184.31 26.1591 184.837 26.1591C185.185 26.1591 185.554 26.2008 185.945 26.2841C186.339 26.3636 186.706 26.5114 187.047 26.7273C187.392 26.9432 187.674 27.2519 187.893 27.6534C188.113 28.0511 188.223 28.5682 188.223 29.2045V35H186.564V33.8068H186.496C186.386 34.0265 186.221 34.2424 186.001 34.4545C185.782 34.6667 185.5 34.8428 185.155 34.983C184.81 35.1231 184.397 35.1932 183.916 35.1932ZM184.286 33.8295C184.755 33.8295 185.157 33.7367 185.49 33.5511C185.827 33.3655 186.083 33.1231 186.257 32.8239C186.435 32.5208 186.524 32.197 186.524 31.8523V30.7273C186.464 30.7879 186.346 30.8447 186.172 30.8977C186.001 30.947 185.806 30.9905 185.587 31.0284C185.367 31.0625 185.153 31.0947 184.945 31.125C184.736 31.1515 184.562 31.1742 184.422 31.1932C184.092 31.2348 183.791 31.3049 183.518 31.4034C183.25 31.5019 183.034 31.6439 182.871 31.8295C182.712 32.0114 182.632 32.2538 182.632 32.5568C182.632 32.9773 182.787 33.2955 183.098 33.5114C183.409 33.7235 183.804 33.8295 184.286 33.8295ZM192.185 29.8182V35H190.486V26.2727H192.116V27.6932H192.224C192.425 27.2311 192.74 26.8598 193.168 26.5795C193.599 26.2992 194.143 26.1591 194.798 26.1591C195.393 26.1591 195.914 26.2841 196.361 26.5341C196.808 26.7803 197.154 27.1477 197.401 27.6364C197.647 28.125 197.77 28.7292 197.77 29.4489V35H196.071V29.6534C196.071 29.0208 195.906 28.5265 195.577 28.1705C195.247 27.8106 194.795 27.6307 194.219 27.6307C193.825 27.6307 193.474 27.7159 193.168 27.8864C192.865 28.0568 192.624 28.3068 192.446 28.6364C192.272 28.9621 192.185 29.3561 192.185 29.8182ZM203.315 35.1705C202.611 35.1705 201.982 34.9905 201.429 34.6307C200.88 34.267 200.448 33.75 200.134 33.0795C199.823 32.4053 199.668 31.5966 199.668 30.6534C199.668 29.7102 199.825 28.9034 200.139 28.233C200.457 27.5625 200.893 27.0492 201.446 26.6932C201.999 26.3371 202.626 26.1591 203.327 26.1591C203.868 26.1591 204.304 26.25 204.634 26.4318C204.967 26.6098 205.224 26.8182 205.406 27.0568C205.592 27.2955 205.736 27.5057 205.838 27.6875H205.94V23.3636H207.639V35H205.98V33.642H205.838C205.736 33.8277 205.588 34.0398 205.395 34.2784C205.205 34.517 204.944 34.7254 204.611 34.9034C204.277 35.0814 203.846 35.1705 203.315 35.1705ZM203.69 33.7216C204.179 33.7216 204.592 33.5928 204.929 33.3352C205.27 33.0739 205.527 32.7121 205.702 32.25C205.88 31.7879 205.969 31.25 205.969 30.6364C205.969 30.0303 205.882 29.5 205.707 29.0455C205.533 28.5909 205.277 28.2367 204.94 27.983C204.603 27.7292 204.187 27.6023 203.69 27.6023C203.179 27.6023 202.753 27.7348 202.412 28C202.071 28.2652 201.813 28.6269 201.639 29.0852C201.469 29.5436 201.384 30.0606 201.384 30.6364C201.384 31.2197 201.471 31.7443 201.645 32.2102C201.819 32.6761 202.077 33.0455 202.418 33.3182C202.762 33.5871 203.187 33.7216 203.69 33.7216ZM13.2912 52.4034L11.7514 52.6761C11.687 52.4792 11.5848 52.2917 11.4446 52.1136C11.3082 51.9356 11.1226 51.7898 10.8878 51.6761C10.6529 51.5625 10.3594 51.5057 10.0071 51.5057C9.52604 51.5057 9.12453 51.6136 8.80256 51.8295C8.48059 52.0417 8.3196 52.3163 8.3196 52.6534C8.3196 52.9451 8.42756 53.1799 8.64347 53.358C8.85938 53.536 9.20786 53.6818 9.68892 53.7955L11.0753 54.1136C11.8783 54.2992 12.4768 54.5852 12.8707 54.9716C13.2647 55.358 13.4616 55.8598 13.4616 56.4773C13.4616 57 13.3101 57.4659 13.0071 57.875C12.7079 58.2803 12.2893 58.5985 11.7514 58.8295C11.2173 59.0606 10.598 59.1761 9.89347 59.1761C8.91619 59.1761 8.11884 58.9678 7.50142 58.5511C6.884 58.1307 6.50521 57.5341 6.36506 56.7614L8.0071 56.5114C8.10938 56.9394 8.3196 57.2633 8.63778 57.483C8.95597 57.6989 9.37074 57.8068 9.8821 57.8068C10.4389 57.8068 10.884 57.6913 11.2173 57.4602C11.5507 57.2254 11.7173 56.9394 11.7173 56.6023C11.7173 56.3295 11.6151 56.1004 11.4105 55.9148C11.2098 55.7292 10.901 55.589 10.4844 55.4943L9.0071 55.1705C8.19271 54.9848 7.59044 54.6894 7.20028 54.2841C6.81392 53.8788 6.62074 53.3655 6.62074 52.7443C6.62074 52.2292 6.76468 51.7784 7.05256 51.392C7.34044 51.0057 7.73816 50.7045 8.24574 50.4886C8.75331 50.2689 9.33475 50.1591 9.99006 50.1591C10.9332 50.1591 11.6757 50.3636 12.2173 50.7727C12.759 51.178 13.117 51.7216 13.2912 52.4034ZM17.0284 53.8182V59H15.3295V47.3636H17.0057V51.6932H17.1136C17.3182 51.2235 17.6307 50.8504 18.0511 50.5739C18.4716 50.2973 19.0208 50.1591 19.6989 50.1591C20.2973 50.1591 20.8201 50.2822 21.267 50.5284C21.7178 50.7746 22.0663 51.142 22.3125 51.6307C22.5625 52.1155 22.6875 52.7216 22.6875 53.4489V59H20.9886V53.6534C20.9886 53.0133 20.8239 52.517 20.4943 52.1648C20.1648 51.8087 19.7064 51.6307 19.1193 51.6307C18.7178 51.6307 18.358 51.7159 18.0398 51.8864C17.7254 52.0568 17.4773 52.3068 17.2955 52.6364C17.1174 52.9621 17.0284 53.3561 17.0284 53.8182ZM27.4943 59.1932C26.9413 59.1932 26.4413 59.0909 25.9943 58.8864C25.5473 58.678 25.1932 58.3769 24.9318 57.983C24.6742 57.589 24.5455 57.1061 24.5455 56.5341C24.5455 56.0417 24.6402 55.6364 24.8295 55.3182C25.0189 55 25.2746 54.7481 25.5966 54.5625C25.9186 54.3769 26.2784 54.2367 26.6761 54.142C27.0739 54.0473 27.4792 53.9754 27.892 53.9261C28.4148 53.8655 28.839 53.8163 29.1648 53.7784C29.4905 53.7367 29.7273 53.6705 29.875 53.5795C30.0227 53.4886 30.0966 53.3409 30.0966 53.1364V53.0966C30.0966 52.6004 29.9564 52.2159 29.6761 51.9432C29.3996 51.6705 28.9867 51.5341 28.4375 51.5341C27.8655 51.5341 27.4148 51.661 27.0852 51.9148C26.7595 52.1648 26.5341 52.4432 26.4091 52.75L24.8125 52.3864C25.0019 51.8561 25.2784 51.428 25.642 51.1023C26.0095 50.7727 26.4318 50.5341 26.9091 50.3864C27.3864 50.2348 27.8883 50.1591 28.4148 50.1591C28.7633 50.1591 29.1326 50.2008 29.5227 50.2841C29.9167 50.3636 30.2841 50.5114 30.625 50.7273C30.9697 50.9432 31.2519 51.2519 31.4716 51.6534C31.6913 52.0511 31.8011 52.5682 31.8011 53.2045V59H30.142V57.8068H30.0739C29.964 58.0265 29.7992 58.2424 29.5795 58.4545C29.3598 58.6667 29.0777 58.8428 28.733 58.983C28.3883 59.1231 27.9754 59.1932 27.4943 59.1932ZM27.8636 57.8295C28.3333 57.8295 28.7348 57.7367 29.0682 57.5511C29.4053 57.3655 29.661 57.1231 29.8352 56.8239C30.0133 56.5208 30.1023 56.197 30.1023 55.8523V54.7273C30.0417 54.7879 29.9242 54.8447 29.75 54.8977C29.5795 54.947 29.3845 54.9905 29.1648 55.0284C28.9451 55.0625 28.7311 55.0947 28.5227 55.125C28.3144 55.1515 28.1402 55.1742 28 55.1932C27.6705 55.2348 27.3693 55.3049 27.0966 55.4034C26.8277 55.5019 26.6117 55.6439 26.4489 55.8295C26.2898 56.0114 26.2102 56.2538 26.2102 56.5568C26.2102 56.9773 26.3655 57.2955 26.6761 57.5114C26.9867 57.7235 27.3826 57.8295 27.8636 57.8295ZM34.0639 59V50.2727H35.706V51.6591H35.7969C35.956 51.1894 36.2363 50.8201 36.6378 50.5511C37.0431 50.2784 37.5014 50.142 38.0128 50.142C38.1188 50.142 38.2438 50.1458 38.3878 50.1534C38.5355 50.161 38.651 50.1705 38.7344 50.1818V51.8068C38.6662 51.7879 38.545 51.767 38.3707 51.7443C38.1965 51.7178 38.0223 51.7045 37.848 51.7045C37.4465 51.7045 37.0885 51.7898 36.7741 51.9602C36.4635 52.1269 36.2173 52.3598 36.0355 52.6591C35.8537 52.9545 35.7628 53.2917 35.7628 53.6705V59H34.0639ZM43.6534 59.1761C42.7936 59.1761 42.053 58.9924 41.4318 58.625C40.8144 58.2538 40.3371 57.733 40 57.0625C39.6667 56.3883 39.5 55.5985 39.5 54.6932C39.5 53.7992 39.6667 53.0114 40 52.3295C40.3371 51.6477 40.8068 51.1155 41.4091 50.733C42.0152 50.3504 42.7235 50.1591 43.5341 50.1591C44.0265 50.1591 44.5038 50.2405 44.9659 50.4034C45.428 50.5663 45.8428 50.822 46.2102 51.1705C46.5777 51.5189 46.8674 51.9716 47.0795 52.5284C47.2917 53.0814 47.3977 53.7538 47.3977 54.5455V55.1477H40.4602V53.875H45.733C45.733 53.428 45.642 53.0322 45.4602 52.6875C45.2784 52.339 45.0227 52.0644 44.6932 51.8636C44.3674 51.6629 43.9848 51.5625 43.5455 51.5625C43.0682 51.5625 42.6515 51.6799 42.2955 51.9148C41.9432 52.1458 41.6705 52.4489 41.4773 52.8239C41.2879 53.1951 41.1932 53.5985 41.1932 54.0341V55.0284C41.1932 55.6117 41.2955 56.108 41.5 56.517C41.7083 56.9261 41.9981 57.2386 42.3693 57.4545C42.7405 57.6667 43.1742 57.7727 43.6705 57.7727C43.9924 57.7727 44.286 57.7273 44.5511 57.6364C44.8163 57.5417 45.0455 57.4015 45.2386 57.2159C45.4318 57.0303 45.5795 56.8011 45.6818 56.5284L47.2898 56.8182C47.161 57.2917 46.9299 57.7064 46.5966 58.0625C46.267 58.4148 45.8523 58.6894 45.3523 58.8864C44.8561 59.0795 44.2898 59.1761 43.6534 59.1761ZM56.0568 59.1932C55.5038 59.1932 55.0038 59.0909 54.5568 58.8864C54.1098 58.678 53.7557 58.3769 53.4943 57.983C53.2367 57.589 53.108 57.1061 53.108 56.5341C53.108 56.0417 53.2027 55.6364 53.392 55.3182C53.5814 55 53.8371 54.7481 54.1591 54.5625C54.4811 54.3769 54.8409 54.2367 55.2386 54.142C55.6364 54.0473 56.0417 53.9754 56.4545 53.9261C56.9773 53.8655 57.4015 53.8163 57.7273 53.7784C58.053 53.7367 58.2898 53.6705 58.4375 53.5795C58.5852 53.4886 58.6591 53.3409 58.6591 53.1364V53.0966C58.6591 52.6004 58.5189 52.2159 58.2386 51.9432C57.9621 51.6705 57.5492 51.5341 57 51.5341C56.428 51.5341 55.9773 51.661 55.6477 51.9148C55.322 52.1648 55.0966 52.4432 54.9716 52.75L53.375 52.3864C53.5644 51.8561 53.8409 51.428 54.2045 51.1023C54.572 50.7727 54.9943 50.5341 55.4716 50.3864C55.9489 50.2348 56.4508 50.1591 56.9773 50.1591C57.3258 50.1591 57.6951 50.2008 58.0852 50.2841C58.4792 50.3636 58.8466 50.5114 59.1875 50.7273C59.5322 50.9432 59.8144 51.2519 60.0341 51.6534C60.2538 52.0511 60.3636 52.5682 60.3636 53.2045V59H58.7045V57.8068H58.6364C58.5265 58.0265 58.3617 58.2424 58.142 58.4545C57.9223 58.6667 57.6402 58.8428 57.2955 58.983C56.9508 59.1231 56.5379 59.1932 56.0568 59.1932ZM56.4261 57.8295C56.8958 57.8295 57.2973 57.7367 57.6307 57.5511C57.9678 57.3655 58.2235 57.1231 58.3977 56.8239C58.5758 56.5208 58.6648 56.197 58.6648 55.8523V54.7273C58.6042 54.7879 58.4867 54.8447 58.3125 54.8977C58.142 54.947 57.947 54.9905 57.7273 55.0284C57.5076 55.0625 57.2936 55.0947 57.0852 55.125C56.8769 55.1515 56.7027 55.1742 56.5625 55.1932C56.233 55.2348 55.9318 55.3049 55.6591 55.4034C55.3902 55.5019 55.1742 55.6439 55.0114 55.8295C54.8523 56.0114 54.7727 56.2538 54.7727 56.5568C54.7727 56.9773 54.928 57.2955 55.2386 57.5114C55.5492 57.7235 55.9451 57.8295 56.4261 57.8295ZM66.3026 59.1761C65.4579 59.1761 64.7306 58.9848 64.1207 58.6023C63.5147 58.2159 63.0488 57.6837 62.723 57.0057C62.3973 56.3277 62.2344 55.5511 62.2344 54.6761C62.2344 53.7898 62.401 53.0076 62.7344 52.3295C63.0677 51.6477 63.5374 51.1155 64.1435 50.733C64.7495 50.3504 65.4635 50.1591 66.2855 50.1591C66.9484 50.1591 67.5393 50.2822 68.0582 50.5284C68.5772 50.7708 68.9957 51.1117 69.3139 51.5511C69.6359 51.9905 69.8272 52.5038 69.8878 53.0909H68.2344C68.1435 52.6818 67.9351 52.3295 67.6094 52.0341C67.2874 51.7386 66.8556 51.5909 66.3139 51.5909C65.8404 51.5909 65.4257 51.7159 65.0696 51.9659C64.7173 52.2121 64.4427 52.5644 64.2457 53.0227C64.0488 53.4773 63.9503 54.0152 63.9503 54.6364C63.9503 55.2727 64.0469 55.822 64.2401 56.2841C64.4332 56.7462 64.706 57.1042 65.0582 57.358C65.4143 57.6117 65.8329 57.7386 66.3139 57.7386C66.6359 57.7386 66.9276 57.6799 67.1889 57.5625C67.4541 57.4413 67.6757 57.2689 67.8537 57.0455C68.0355 56.822 68.1624 56.553 68.2344 56.2386H69.8878C69.8272 56.803 69.6435 57.3068 69.3366 57.75C69.0298 58.1932 68.6188 58.5417 68.1037 58.7955C67.5923 59.0492 66.992 59.1761 66.3026 59.1761ZM75.3807 59.1761C74.536 59.1761 73.8087 58.9848 73.1989 58.6023C72.5928 58.2159 72.1269 57.6837 71.8011 57.0057C71.4754 56.3277 71.3125 55.5511 71.3125 54.6761C71.3125 53.7898 71.4792 53.0076 71.8125 52.3295C72.1458 51.6477 72.6155 51.1155 73.2216 50.733C73.8277 50.3504 74.5417 50.1591 75.3636 50.1591C76.0265 50.1591 76.6174 50.2822 77.1364 50.5284C77.6553 50.7708 78.0739 51.1117 78.392 51.5511C78.714 51.9905 78.9053 52.5038 78.9659 53.0909H77.3125C77.2216 52.6818 77.0133 52.3295 76.6875 52.0341C76.3655 51.7386 75.9337 51.5909 75.392 51.5909C74.9186 51.5909 74.5038 51.7159 74.1477 51.9659C73.7955 52.2121 73.5208 52.5644 73.3239 53.0227C73.1269 53.4773 73.0284 54.0152 73.0284 54.6364C73.0284 55.2727 73.125 55.822 73.3182 56.2841C73.5114 56.7462 73.7841 57.1042 74.1364 57.358C74.4924 57.6117 74.911 57.7386 75.392 57.7386C75.714 57.7386 76.0057 57.6799 76.267 57.5625C76.5322 57.4413 76.7538 57.2689 76.9318 57.0455C77.1136 56.822 77.2405 56.553 77.3125 56.2386H78.9659C78.9053 56.803 78.7216 57.3068 78.4148 57.75C78.108 58.1932 77.697 58.5417 77.1818 58.7955C76.6705 59.0492 76.0701 59.1761 75.3807 59.1761ZM84.4588 59.1761C83.6406 59.1761 82.9266 58.9886 82.3168 58.6136C81.7069 58.2386 81.2334 57.714 80.8963 57.0398C80.5592 56.3655 80.3906 55.5777 80.3906 54.6761C80.3906 53.7708 80.5592 52.9792 80.8963 52.3011C81.2334 51.6231 81.7069 51.0966 82.3168 50.7216C82.9266 50.3466 83.6406 50.1591 84.4588 50.1591C85.277 50.1591 85.991 50.3466 86.6009 50.7216C87.2107 51.0966 87.6842 51.6231 88.0213 52.3011C88.3584 52.9792 88.527 53.7708 88.527 54.6761C88.527 55.5777 88.3584 56.3655 88.0213 57.0398C87.6842 57.714 87.2107 58.2386 86.6009 58.6136C85.991 58.9886 85.277 59.1761 84.4588 59.1761ZM84.4645 57.75C84.9948 57.75 85.4342 57.6098 85.7827 57.3295C86.1312 57.0492 86.3887 56.6761 86.5554 56.2102C86.7259 55.7443 86.8111 55.2311 86.8111 54.6705C86.8111 54.1136 86.7259 53.6023 86.5554 53.1364C86.3887 52.6667 86.1312 52.2898 85.7827 52.0057C85.4342 51.7216 84.9948 51.5795 84.4645 51.5795C83.9304 51.5795 83.4872 51.7216 83.1349 52.0057C82.7865 52.2898 82.527 52.6667 82.3565 53.1364C82.1899 53.6023 82.1065 54.1136 82.1065 54.6705C82.1065 55.2311 82.1899 55.7443 82.3565 56.2102C82.527 56.6761 82.7865 57.0492 83.1349 57.3295C83.4872 57.6098 83.9304 57.75 84.4645 57.75ZM95.9517 55.3807V50.2727H97.6562V59H95.9858V57.4886H95.8949C95.6941 57.9545 95.3722 58.3428 94.929 58.6534C94.4896 58.9602 93.9422 59.1136 93.2869 59.1136C92.7263 59.1136 92.2301 58.9905 91.7983 58.7443C91.3703 58.4943 91.0331 58.125 90.7869 57.6364C90.5445 57.1477 90.4233 56.5436 90.4233 55.8239V50.2727H92.1222V55.6193C92.1222 56.214 92.2869 56.6875 92.6165 57.0398C92.946 57.392 93.3741 57.5682 93.9006 57.5682C94.2188 57.5682 94.535 57.4886 94.8494 57.3295C95.1676 57.1705 95.4309 56.9299 95.6392 56.608C95.8513 56.286 95.9555 55.8769 95.9517 55.3807ZM101.638 53.8182V59H99.9389V50.2727H101.57V51.6932H101.678C101.878 51.2311 102.193 50.8598 102.621 50.5795C103.053 50.2992 103.596 50.1591 104.251 50.1591C104.846 50.1591 105.367 50.2841 105.814 50.5341C106.261 50.7803 106.607 51.1477 106.854 51.6364C107.1 52.125 107.223 52.7292 107.223 53.4489V59H105.524V53.6534C105.524 53.0208 105.359 52.5265 105.03 52.1705C104.7 51.8106 104.248 51.6307 103.672 51.6307C103.278 51.6307 102.928 51.7159 102.621 51.8864C102.318 52.0568 102.077 52.3068 101.899 52.6364C101.725 52.9621 101.638 53.3561 101.638 53.8182ZM113.575 50.2727V51.6364H108.808V50.2727H113.575ZM110.087 48.1818H111.786V56.4375C111.786 56.767 111.835 57.0152 111.933 57.1818C112.032 57.3447 112.159 57.4564 112.314 57.517C112.473 57.5739 112.645 57.6023 112.831 57.6023C112.967 57.6023 113.087 57.5928 113.189 57.5739C113.291 57.5549 113.371 57.5398 113.428 57.5284L113.734 58.9318C113.636 58.9697 113.496 59.0076 113.314 59.0455C113.132 59.0871 112.905 59.1098 112.632 59.1136C112.185 59.1212 111.768 59.0417 111.382 58.875C110.996 58.7083 110.683 58.4508 110.445 58.1023C110.206 57.7538 110.087 57.3163 110.087 56.7898V48.1818ZM121.854 52.4034L120.314 52.6761C120.25 52.4792 120.147 52.2917 120.007 52.1136C119.871 51.9356 119.685 51.7898 119.45 51.6761C119.215 51.5625 118.922 51.5057 118.57 51.5057C118.089 51.5057 117.687 51.6136 117.365 51.8295C117.043 52.0417 116.882 52.3163 116.882 52.6534C116.882 52.9451 116.99 53.1799 117.206 53.358C117.422 53.536 117.77 53.6818 118.251 53.7955L119.638 54.1136C120.441 54.2992 121.039 54.5852 121.433 54.9716C121.827 55.358 122.024 55.8598 122.024 56.4773C122.024 57 121.873 57.4659 121.57 57.875C121.27 58.2803 120.852 58.5985 120.314 58.8295C119.78 59.0606 119.161 59.1761 118.456 59.1761C117.479 59.1761 116.681 58.9678 116.064 58.5511C115.446 58.1307 115.068 57.5341 114.928 56.7614L116.57 56.5114C116.672 56.9394 116.882 57.2633 117.2 57.483C117.518 57.6989 117.933 57.8068 118.445 57.8068C119.001 57.8068 119.446 57.6913 119.78 57.4602C120.113 57.2254 120.28 56.9394 120.28 56.6023C120.28 56.3295 120.178 56.1004 119.973 55.9148C119.772 55.7292 119.464 55.589 119.047 55.4943L117.57 55.1705C116.755 54.9848 116.153 54.6894 115.763 54.2841C115.376 53.8788 115.183 53.3655 115.183 52.7443C115.183 52.2292 115.327 51.7784 115.615 51.392C115.903 51.0057 116.301 50.7045 116.808 50.4886C117.316 50.2689 117.897 50.1591 118.553 50.1591C119.496 50.1591 120.238 50.3636 120.78 50.7727C121.321 51.178 121.679 51.7216 121.854 52.4034ZM132.2 50.2727V51.6364H127.433V50.2727H132.2ZM128.712 48.1818H130.411V56.4375C130.411 56.767 130.46 57.0152 130.558 57.1818C130.657 57.3447 130.784 57.4564 130.939 57.517C131.098 57.5739 131.27 57.6023 131.456 57.6023C131.592 57.6023 131.712 57.5928 131.814 57.5739C131.916 57.5549 131.996 57.5398 132.053 57.5284L132.359 58.9318C132.261 58.9697 132.121 59.0076 131.939 59.0455C131.757 59.0871 131.53 59.1098 131.257 59.1136C130.81 59.1212 130.393 59.0417 130.007 58.875C129.621 58.7083 129.308 58.4508 129.07 58.1023C128.831 57.7538 128.712 57.3163 128.712 56.7898V48.1818ZM137.662 59.1761C136.844 59.1761 136.13 58.9886 135.52 58.6136C134.91 58.2386 134.437 57.714 134.099 57.0398C133.762 56.3655 133.594 55.5777 133.594 54.6761C133.594 53.7708 133.762 52.9792 134.099 52.3011C134.437 51.6231 134.91 51.0966 135.52 50.7216C136.13 50.3466 136.844 50.1591 137.662 50.1591C138.48 50.1591 139.194 50.3466 139.804 50.7216C140.414 51.0966 140.887 51.6231 141.224 52.3011C141.562 52.9792 141.73 53.7708 141.73 54.6761C141.73 55.5777 141.562 56.3655 141.224 57.0398C140.887 57.714 140.414 58.2386 139.804 58.6136C139.194 58.9886 138.48 59.1761 137.662 59.1761ZM137.668 57.75C138.198 57.75 138.637 57.6098 138.986 57.3295C139.334 57.0492 139.592 56.6761 139.759 56.2102C139.929 55.7443 140.014 55.2311 140.014 54.6705C140.014 54.1136 139.929 53.6023 139.759 53.1364C139.592 52.6667 139.334 52.2898 138.986 52.0057C138.637 51.7216 138.198 51.5795 137.668 51.5795C137.134 51.5795 136.69 51.7216 136.338 52.0057C135.99 52.2898 135.73 52.6667 135.56 53.1364C135.393 53.6023 135.31 54.1136 135.31 54.6705C135.31 55.2311 135.393 55.7443 135.56 56.2102C135.73 56.6761 135.99 57.0492 136.338 57.3295C136.69 57.6098 137.134 57.75 137.668 57.75ZM153.389 55.3807V50.2727H155.094V59H153.423V57.4886H153.332C153.132 57.9545 152.81 58.3428 152.366 58.6534C151.927 58.9602 151.38 59.1136 150.724 59.1136C150.164 59.1136 149.668 58.9905 149.236 58.7443C148.808 58.4943 148.471 58.125 148.224 57.6364C147.982 57.1477 147.861 56.5436 147.861 55.8239V50.2727H149.56V55.6193C149.56 56.214 149.724 56.6875 150.054 57.0398C150.384 57.392 150.812 57.5682 151.338 57.5682C151.656 57.5682 151.973 57.4886 152.287 57.3295C152.605 57.1705 152.868 56.9299 153.077 56.608C153.289 56.286 153.393 55.8769 153.389 55.3807ZM163.916 52.4034L162.376 52.6761C162.312 52.4792 162.21 52.2917 162.07 52.1136C161.933 51.9356 161.748 51.7898 161.513 51.6761C161.278 51.5625 160.984 51.5057 160.632 51.5057C160.151 51.5057 159.75 51.6136 159.428 51.8295C159.106 52.0417 158.945 52.3163 158.945 52.6534C158.945 52.9451 159.053 53.1799 159.268 53.358C159.484 53.536 159.833 53.6818 160.314 53.7955L161.7 54.1136C162.503 54.2992 163.102 54.5852 163.496 54.9716C163.89 55.358 164.087 55.8598 164.087 56.4773C164.087 57 163.935 57.4659 163.632 57.875C163.333 58.2803 162.914 58.5985 162.376 58.8295C161.842 59.0606 161.223 59.1761 160.518 59.1761C159.541 59.1761 158.744 58.9678 158.126 58.5511C157.509 58.1307 157.13 57.5341 156.99 56.7614L158.632 56.5114C158.734 56.9394 158.945 57.2633 159.263 57.483C159.581 57.6989 159.996 57.8068 160.507 57.8068C161.064 57.8068 161.509 57.6913 161.842 57.4602C162.176 57.2254 162.342 56.9394 162.342 56.6023C162.342 56.3295 162.24 56.1004 162.036 55.9148C161.835 55.7292 161.526 55.589 161.109 55.4943L159.632 55.1705C158.818 54.9848 158.215 54.6894 157.825 54.2841C157.439 53.8788 157.246 53.3655 157.246 52.7443C157.246 52.2292 157.39 51.7784 157.678 51.392C157.965 51.0057 158.363 50.7045 158.871 50.4886C159.378 50.2689 159.96 50.1591 160.615 50.1591C161.558 50.1591 162.301 50.3636 162.842 50.7727C163.384 51.178 163.742 51.7216 163.916 52.4034ZM169.716 59.1761C168.856 59.1761 168.116 58.9924 167.494 58.625C166.877 58.2538 166.4 57.733 166.062 57.0625C165.729 56.3883 165.562 55.5985 165.562 54.6932C165.562 53.7992 165.729 53.0114 166.062 52.3295C166.4 51.6477 166.869 51.1155 167.472 50.733C168.078 50.3504 168.786 50.1591 169.597 50.1591C170.089 50.1591 170.566 50.2405 171.028 50.4034C171.491 50.5663 171.905 50.822 172.273 51.1705C172.64 51.5189 172.93 51.9716 173.142 52.5284C173.354 53.0814 173.46 53.7538 173.46 54.5455V55.1477H166.523V53.875H171.795C171.795 53.428 171.705 53.0322 171.523 52.6875C171.341 52.339 171.085 52.0644 170.756 51.8636C170.43 51.6629 170.047 51.5625 169.608 51.5625C169.131 51.5625 168.714 51.6799 168.358 51.9148C168.006 52.1458 167.733 52.4489 167.54 52.8239C167.35 53.1951 167.256 53.5985 167.256 54.0341V55.0284C167.256 55.6117 167.358 56.108 167.562 56.517C167.771 56.9261 168.061 57.2386 168.432 57.4545C168.803 57.6667 169.237 57.7727 169.733 57.7727C170.055 57.7727 170.348 57.7273 170.614 57.6364C170.879 57.5417 171.108 57.4015 171.301 57.2159C171.494 57.0303 171.642 56.8011 171.744 56.5284L173.352 56.8182C173.223 57.2917 172.992 57.7064 172.659 58.0625C172.33 58.4148 171.915 58.6894 171.415 58.8864C170.919 59.0795 170.352 59.1761 169.716 59.1761ZM181.472 59L178.903 50.2727H180.659L182.369 56.6818H182.455L184.17 50.2727H185.926L187.631 56.6534H187.716L189.415 50.2727H191.17L188.608 59H186.875L185.102 52.6989H184.972L183.199 59H181.472ZM192.783 59V50.2727H194.482V59H192.783ZM193.641 48.9261C193.345 48.9261 193.091 48.8277 192.879 48.6307C192.671 48.4299 192.567 48.1913 192.567 47.9148C192.567 47.6345 192.671 47.3958 192.879 47.1989C193.091 46.9981 193.345 46.8977 193.641 46.8977C193.936 46.8977 194.188 46.9981 194.396 47.1989C194.608 47.3958 194.714 47.6345 194.714 47.9148C194.714 48.1913 194.608 48.4299 194.396 48.6307C194.188 48.8277 193.936 48.9261 193.641 48.9261ZM200.841 50.2727V51.6364H196.074V50.2727H200.841ZM197.352 48.1818H199.051V56.4375C199.051 56.767 199.1 57.0152 199.199 57.1818C199.297 57.3447 199.424 57.4564 199.58 57.517C199.739 57.5739 199.911 57.6023 200.097 57.6023C200.233 57.6023 200.352 57.5928 200.455 57.5739C200.557 57.5549 200.636 57.5398 200.693 57.5284L201 58.9318C200.902 58.9697 200.761 59.0076 200.58 59.0455C200.398 59.0871 200.17 59.1098 199.898 59.1136C199.451 59.1212 199.034 59.0417 198.648 58.875C198.261 58.7083 197.949 58.4508 197.71 58.1023C197.472 57.7538 197.352 57.3163 197.352 56.7898V48.1818ZM204.607 53.8182V59H202.908V47.3636H204.584V51.6932H204.692C204.896 51.2235 205.209 50.8504 205.629 50.5739C206.05 50.2973 206.599 50.1591 207.277 50.1591C207.875 50.1591 208.398 50.2822 208.845 50.5284C209.296 50.7746 209.644 51.142 209.891 51.6307C210.141 52.1155 210.266 52.7216 210.266 53.4489V59H208.567V53.6534C208.567 53.0133 208.402 52.517 208.072 52.1648C207.743 51.8087 207.285 51.6307 206.697 51.6307C206.296 51.6307 205.936 51.7159 205.618 51.8864C205.304 52.0568 205.055 52.3068 204.874 52.6364C204.696 52.9621 204.607 53.3561 204.607 53.8182ZM45.544 74.2727V75.6364H40.777V74.2727H45.544ZM42.0554 72.1818H43.7543V80.4375C43.7543 80.767 43.8035 81.0152 43.902 81.1818C44.0005 81.3447 44.1274 81.4564 44.2827 81.517C44.4418 81.5739 44.6141 81.6023 44.7997 81.6023C44.9361 81.6023 45.0554 81.5928 45.1577 81.5739C45.2599 81.5549 45.3395 81.5398 45.3963 81.5284L45.7031 82.9318C45.6046 82.9697 45.4645 83.0076 45.2827 83.0455C45.1009 83.0871 44.8736 83.1098 44.6009 83.1136C44.1539 83.1212 43.7372 83.0417 43.3509 82.875C42.9645 82.7083 42.652 82.4508 42.4134 82.1023C42.1747 81.7538 42.0554 81.3163 42.0554 80.7898V72.1818ZM49.3097 77.8182V83H47.6108V71.3636H49.2869V75.6932H49.3949C49.5994 75.2235 49.9119 74.8504 50.3324 74.5739C50.7528 74.2973 51.3021 74.1591 51.9801 74.1591C52.5786 74.1591 53.1013 74.2822 53.5483 74.5284C53.9991 74.7746 54.3475 75.142 54.5938 75.6307C54.8438 76.1155 54.9688 76.7216 54.9688 77.4489V83H53.2699V77.6534C53.2699 77.0133 53.1051 76.517 52.7756 76.1648C52.446 75.8087 51.9877 75.6307 51.4006 75.6307C50.9991 75.6307 50.6392 75.7159 50.321 75.8864C50.0066 76.0568 49.7585 76.3068 49.5767 76.6364C49.3987 76.9621 49.3097 77.3561 49.3097 77.8182ZM60.9972 83.1761C60.1373 83.1761 59.3968 82.9924 58.7756 82.625C58.1581 82.2538 57.6809 81.733 57.3438 81.0625C57.0104 80.3883 56.8438 79.5985 56.8438 78.6932C56.8438 77.7992 57.0104 77.0114 57.3438 76.3295C57.6809 75.6477 58.1506 75.1155 58.7528 74.733C59.3589 74.3504 60.0672 74.1591 60.8778 74.1591C61.3703 74.1591 61.8475 74.2405 62.3097 74.4034C62.7718 74.5663 63.1866 74.822 63.554 75.1705C63.9214 75.5189 64.2112 75.9716 64.4233 76.5284C64.6354 77.0814 64.7415 77.7538 64.7415 78.5455V79.1477H57.804V77.875H63.0767C63.0767 77.428 62.9858 77.0322 62.804 76.6875C62.6222 76.339 62.3665 76.0644 62.0369 75.8636C61.7112 75.6629 61.3286 75.5625 60.8892 75.5625C60.4119 75.5625 59.9953 75.6799 59.6392 75.9148C59.2869 76.1458 59.0142 76.4489 58.821 76.8239C58.6316 77.1951 58.5369 77.5985 58.5369 78.0341V79.0284C58.5369 79.6117 58.6392 80.108 58.8438 80.517C59.0521 80.9261 59.3419 81.2386 59.7131 81.4545C60.0843 81.6667 60.518 81.7727 61.0142 81.7727C61.3362 81.7727 61.6297 81.7273 61.8949 81.6364C62.16 81.5417 62.3892 81.4015 62.5824 81.2159C62.7756 81.0303 62.9233 80.8011 63.0256 80.5284L64.6335 80.8182C64.5047 81.2917 64.2737 81.7064 63.9403 82.0625C63.6108 82.4148 63.196 82.6894 62.696 82.8864C62.1998 83.0795 61.6335 83.1761 60.9972 83.1761ZM78.8722 75.0398C78.7623 74.6951 78.6146 74.3864 78.429 74.1136C78.2472 73.8371 78.0294 73.6023 77.7756 73.4091C77.5218 73.2121 77.232 73.0625 76.9062 72.9602C76.5843 72.858 76.2301 72.8068 75.8438 72.8068C75.1884 72.8068 74.5975 72.9754 74.071 73.3125C73.5445 73.6496 73.1278 74.1439 72.821 74.7955C72.518 75.4432 72.3665 76.2367 72.3665 77.1761C72.3665 78.1193 72.5199 78.9167 72.8267 79.5682C73.1335 80.2197 73.554 80.714 74.0881 81.0511C74.6222 81.3883 75.2301 81.5568 75.9119 81.5568C76.5445 81.5568 77.0956 81.428 77.5653 81.1705C78.0388 80.9129 78.4044 80.5492 78.6619 80.0795C78.9233 79.6061 79.054 79.0492 79.054 78.4091L79.5085 78.4943H76.179V77.0455H80.7528V78.3693C80.7528 79.3466 80.5445 80.1951 80.1278 80.9148C79.715 81.6307 79.143 82.1837 78.4119 82.5739C77.6847 82.964 76.8513 83.1591 75.9119 83.1591C74.8589 83.1591 73.9347 82.9167 73.1392 82.4318C72.3475 81.947 71.7301 81.2595 71.2869 80.3693C70.8438 79.4754 70.6222 78.4148 70.6222 77.1875C70.6222 76.2595 70.7509 75.4261 71.0085 74.6875C71.2661 73.9489 71.6278 73.322 72.0938 72.8068C72.5634 72.2879 73.1146 71.892 73.7472 71.6193C74.3835 71.3428 75.0786 71.2045 75.8324 71.2045C76.4612 71.2045 77.0464 71.2973 77.5881 71.483C78.1335 71.6686 78.6184 71.9318 79.0426 72.2727C79.4706 72.6136 79.8248 73.0189 80.1051 73.4886C80.3854 73.9545 80.5748 74.4716 80.6733 75.0398H78.8722ZM88.3736 79.3807V74.2727H90.0781V83H88.4077V81.4886H88.3168C88.116 81.9545 87.794 82.3428 87.3509 82.6534C86.9115 82.9602 86.3641 83.1136 85.7088 83.1136C85.1482 83.1136 84.652 82.9905 84.2202 82.7443C83.7921 82.4943 83.455 82.125 83.2088 81.6364C82.9664 81.1477 82.8452 80.5436 82.8452 79.8239V74.2727H84.544V79.6193C84.544 80.214 84.7088 80.6875 85.0384 81.0398C85.3679 81.392 85.7959 81.5682 86.3224 81.5682C86.6406 81.5682 86.9569 81.4886 87.2713 81.3295C87.5895 81.1705 87.8527 80.9299 88.0611 80.608C88.2732 80.286 88.3774 79.8769 88.3736 79.3807ZM92.3608 83V74.2727H93.9915V75.6932H94.0994C94.2813 75.2121 94.5786 74.8371 94.9915 74.5682C95.4044 74.2955 95.8987 74.1591 96.4744 74.1591C97.0578 74.1591 97.5464 74.2955 97.9403 74.5682C98.3381 74.8409 98.6316 75.2159 98.821 75.6932H98.9119C99.1203 75.2273 99.4517 74.8561 99.9062 74.5795C100.361 74.2992 100.902 74.1591 101.531 74.1591C102.323 74.1591 102.969 74.4072 103.469 74.9034C103.973 75.3996 104.224 76.1477 104.224 77.1477V83H102.526V77.3068C102.526 76.7159 102.365 76.2879 102.043 76.0227C101.721 75.7576 101.336 75.625 100.889 75.625C100.336 75.625 99.9062 75.7955 99.5994 76.1364C99.2926 76.4735 99.1392 76.9072 99.1392 77.4375V83H97.446V77.1989C97.446 76.7254 97.2983 76.3447 97.0028 76.0568C96.7074 75.7689 96.3229 75.625 95.8494 75.625C95.5275 75.625 95.2301 75.7102 94.9574 75.8807C94.6884 76.0473 94.4706 76.2803 94.304 76.5795C94.1411 76.8788 94.0597 77.2254 94.0597 77.6193V83H92.3608ZM106.638 83V71.3636H108.337V75.6875H108.439C108.537 75.5057 108.679 75.2955 108.865 75.0568C109.051 74.8182 109.308 74.6098 109.638 74.4318C109.967 74.25 110.403 74.1591 110.945 74.1591C111.649 74.1591 112.278 74.3371 112.831 74.6932C113.384 75.0492 113.818 75.5625 114.132 76.233C114.45 76.9034 114.609 77.7102 114.609 78.6534C114.609 79.5966 114.452 80.4053 114.138 81.0795C113.823 81.75 113.392 82.267 112.842 82.6307C112.293 82.9905 111.666 83.1705 110.962 83.1705C110.431 83.1705 109.998 83.0814 109.661 82.9034C109.327 82.7254 109.066 82.517 108.876 82.2784C108.687 82.0398 108.541 81.8277 108.439 81.642H108.297V83H106.638ZM108.303 78.6364C108.303 79.25 108.392 79.7879 108.57 80.25C108.748 80.7121 109.005 81.0739 109.342 81.3352C109.679 81.5928 110.092 81.7216 110.581 81.7216C111.089 81.7216 111.513 81.5871 111.854 81.3182C112.195 81.0455 112.452 80.6761 112.626 80.2102C112.804 79.7443 112.893 79.2197 112.893 78.6364C112.893 78.0606 112.806 77.5436 112.632 77.0852C112.462 76.6269 112.204 76.2652 111.859 76C111.518 75.7348 111.092 75.6023 110.581 75.6023C110.089 75.6023 109.672 75.7292 109.331 75.983C108.994 76.2367 108.738 76.5909 108.564 77.0455C108.39 77.5 108.303 78.0303 108.303 78.6364ZM119.057 83.1932C118.504 83.1932 118.004 83.0909 117.557 82.8864C117.11 82.678 116.756 82.3769 116.494 81.983C116.237 81.589 116.108 81.1061 116.108 80.5341C116.108 80.0417 116.203 79.6364 116.392 79.3182C116.581 79 116.837 78.7481 117.159 78.5625C117.481 78.3769 117.841 78.2367 118.239 78.142C118.636 78.0473 119.042 77.9754 119.455 77.9261C119.977 77.8655 120.402 77.8163 120.727 77.7784C121.053 77.7367 121.29 77.6705 121.438 77.5795C121.585 77.4886 121.659 77.3409 121.659 77.1364V77.0966C121.659 76.6004 121.519 76.2159 121.239 75.9432C120.962 75.6705 120.549 75.5341 120 75.5341C119.428 75.5341 118.977 75.661 118.648 75.9148C118.322 76.1648 118.097 76.4432 117.972 76.75L116.375 76.3864C116.564 75.8561 116.841 75.428 117.205 75.1023C117.572 74.7727 117.994 74.5341 118.472 74.3864C118.949 74.2348 119.451 74.1591 119.977 74.1591C120.326 74.1591 120.695 74.2008 121.085 74.2841C121.479 74.3636 121.847 74.5114 122.188 74.7273C122.532 74.9432 122.814 75.2519 123.034 75.6534C123.254 76.0511 123.364 76.5682 123.364 77.2045V83H121.705V81.8068H121.636C121.527 82.0265 121.362 82.2424 121.142 82.4545C120.922 82.6667 120.64 82.8428 120.295 82.983C119.951 83.1231 119.538 83.1932 119.057 83.1932ZM119.426 81.8295C119.896 81.8295 120.297 81.7367 120.631 81.5511C120.968 81.3655 121.223 81.1231 121.398 80.8239C121.576 80.5208 121.665 80.197 121.665 79.8523V78.7273C121.604 78.7879 121.487 78.8447 121.312 78.8977C121.142 78.947 120.947 78.9905 120.727 79.0284C120.508 79.0625 120.294 79.0947 120.085 79.125C119.877 79.1515 119.703 79.1742 119.562 79.1932C119.233 79.2348 118.932 79.3049 118.659 79.4034C118.39 79.5019 118.174 79.6439 118.011 79.8295C117.852 80.0114 117.773 80.2538 117.773 80.5568C117.773 80.9773 117.928 81.2955 118.239 81.5114C118.549 81.7235 118.945 81.8295 119.426 81.8295ZM127.325 71.3636V83H125.626V71.3636H127.325ZM131.31 71.3636V83H129.611V71.3636H131.31ZM147.631 75.1477H145.858C145.79 74.7689 145.663 74.4356 145.477 74.1477C145.292 73.8598 145.064 73.6155 144.795 73.4148C144.527 73.214 144.225 73.0625 143.892 72.9602C143.563 72.858 143.212 72.8068 142.841 72.8068C142.17 72.8068 141.57 72.9754 141.04 73.3125C140.513 73.6496 140.097 74.1439 139.79 74.7955C139.487 75.447 139.335 76.2424 139.335 77.1818C139.335 78.1288 139.487 78.928 139.79 79.5795C140.097 80.2311 140.515 80.7235 141.045 81.0568C141.576 81.3902 142.172 81.5568 142.835 81.5568C143.203 81.5568 143.551 81.5076 143.881 81.4091C144.214 81.3068 144.515 81.1572 144.784 80.9602C145.053 80.7633 145.28 80.5227 145.466 80.2386C145.655 79.9508 145.786 79.6212 145.858 79.25L147.631 79.2557C147.536 79.8277 147.352 80.3542 147.08 80.8352C146.811 81.3125 146.464 81.7254 146.04 82.0739C145.619 82.4186 145.138 82.6856 144.597 82.875C144.055 83.0644 143.464 83.1591 142.824 83.1591C141.816 83.1591 140.919 82.9205 140.131 82.4432C139.343 81.9621 138.722 81.2746 138.267 80.3807C137.816 79.4867 137.591 78.4205 137.591 77.1818C137.591 75.9394 137.818 74.8731 138.273 73.983C138.727 73.089 139.348 72.4034 140.136 71.9261C140.924 71.4451 141.82 71.2045 142.824 71.2045C143.441 71.2045 144.017 71.2936 144.551 71.4716C145.089 71.6458 145.572 71.9034 146 72.2443C146.428 72.5814 146.782 72.9943 147.062 73.483C147.343 73.9678 147.532 74.5227 147.631 75.1477ZM151.294 71.3636V83H149.595V71.3636H151.294ZM159.108 79.3807V74.2727H160.812V83H159.142V81.4886H159.051C158.85 81.9545 158.528 82.3428 158.085 82.6534C157.646 82.9602 157.098 83.1136 156.443 83.1136C155.883 83.1136 155.386 82.9905 154.955 82.7443C154.527 82.4943 154.189 82.125 153.943 81.6364C153.701 81.1477 153.58 80.5436 153.58 79.8239V74.2727H155.278V79.6193C155.278 80.214 155.443 80.6875 155.773 81.0398C156.102 81.392 156.53 81.5682 157.057 81.5682C157.375 81.5682 157.691 81.4886 158.006 81.3295C158.324 81.1705 158.587 80.9299 158.795 80.608C159.008 80.286 159.112 79.8769 159.108 79.3807ZM163.232 83V71.3636H164.93V75.6875H165.033C165.131 75.5057 165.273 75.2955 165.459 75.0568C165.644 74.8182 165.902 74.6098 166.232 74.4318C166.561 74.25 166.997 74.1591 167.538 74.1591C168.243 74.1591 168.872 74.3371 169.425 74.6932C169.978 75.0492 170.411 75.5625 170.726 76.233C171.044 76.9034 171.203 77.7102 171.203 78.6534C171.203 79.5966 171.046 80.4053 170.732 81.0795C170.417 81.75 169.985 82.267 169.436 82.6307C168.887 82.9905 168.26 83.1705 167.555 83.1705C167.025 83.1705 166.591 83.0814 166.254 82.9034C165.921 82.7254 165.66 82.517 165.47 82.2784C165.281 82.0398 165.135 81.8277 165.033 81.642H164.891V83H163.232ZM164.896 78.6364C164.896 79.25 164.985 79.7879 165.163 80.25C165.341 80.7121 165.599 81.0739 165.936 81.3352C166.273 81.5928 166.686 81.7216 167.175 81.7216C167.682 81.7216 168.107 81.5871 168.447 81.3182C168.788 81.0455 169.046 80.6761 169.22 80.2102C169.398 79.7443 169.487 79.2197 169.487 78.6364C169.487 78.0606 169.4 77.5436 169.226 77.0852C169.055 76.6269 168.798 76.2652 168.453 76C168.112 75.7348 167.686 75.6023 167.175 75.6023C166.682 75.6023 166.266 75.7292 165.925 75.983C165.588 76.2367 165.332 76.5909 165.158 77.0455C164.983 77.5 164.896 78.0303 164.896 78.6364ZM175.253 71.3636L175.105 79.6534H173.531L173.384 71.3636H175.253ZM174.321 83.108C174.007 83.108 173.738 82.9981 173.514 82.7784C173.291 82.5549 173.181 82.286 173.185 81.9716C173.181 81.661 173.291 81.3958 173.514 81.1761C173.738 80.9527 174.007 80.8409 174.321 80.8409C174.628 80.8409 174.893 80.9527 175.116 81.1761C175.34 81.3958 175.454 81.661 175.457 81.9716C175.454 82.1799 175.399 82.3712 175.293 82.5455C175.19 82.7159 175.054 82.8523 174.884 82.9545C174.713 83.0568 174.526 83.108 174.321 83.108Z"
        fill="#306ED9" />
    <path
        d="M242.708 0.23538C242.286 -0.120239 241.655 -0.0659777 241.299 0.356576L235.504 7.24251C235.149 7.66507 235.203 8.2959 235.625 8.65152C236.048 9.00714 236.679 8.95288 237.034 8.53033L242.186 2.40949L248.307 7.56075C248.729 7.91637 249.36 7.86211 249.716 7.43955C250.071 7.01699 250.017 6.38616 249.594 6.03054L242.708 0.23538ZM226.474 41.7755C226.82 42.7138 226.82 42.7137 226.82 42.7135C226.821 42.7134 226.821 42.7133 226.821 42.7131C226.822 42.7128 226.823 42.7125 226.824 42.7121C226.827 42.7112 226.829 42.7102 226.833 42.7088C226.84 42.7061 226.85 42.7024 226.862 42.6977C226.887 42.6882 226.923 42.6745 226.968 42.6567C227.058 42.621 227.188 42.5684 227.352 42.4986C227.68 42.359 228.147 42.1499 228.714 41.8675C229.847 41.3033 231.387 40.4429 233.022 39.254C236.281 36.885 239.997 33.1527 241.533 27.7891L239.61 27.2385C238.244 32.0094 234.911 35.4081 231.846 37.6363C230.32 38.746 228.88 39.5508 227.823 40.0772C227.295 40.34 226.864 40.5325 226.569 40.6582C226.421 40.721 226.308 40.767 226.232 40.7968C226.195 40.8116 226.167 40.8224 226.149 40.8291C226.141 40.8325 226.134 40.8348 226.131 40.8362C226.129 40.8369 226.128 40.8373 226.127 40.8375C226.127 40.8376 226.127 40.8376 226.127 40.8375C226.127 40.8375 226.127 40.8374 226.127 40.8374C226.128 40.8374 226.128 40.8372 226.474 41.7755ZM241.533 27.7891C243.024 22.5819 243.396 15.8378 243.406 10.4586C243.412 7.75626 243.325 5.37402 243.238 3.66687C243.194 2.813 243.15 2.12728 243.117 1.65397C243.1 1.41729 243.086 1.23368 243.077 1.10865C243.072 1.04613 243.068 0.998259 243.065 0.96572C243.064 0.949448 243.063 0.937011 243.062 0.928493C243.062 0.924234 243.061 0.920955 243.061 0.918665C243.061 0.917523 243.061 0.916628 243.061 0.915978C243.061 0.915655 243.061 0.915355 243.061 0.915193C243.061 0.914958 243.061 0.914783 242.065 1.00048C241.068 1.08618 241.068 1.08614 241.068 1.08615C241.068 1.08624 241.068 1.08631 241.068 1.08648C241.068 1.08683 241.068 1.08743 241.068 1.08828C241.069 1.08997 241.069 1.09264 241.069 1.09629C241.07 1.1036 241.071 1.11481 241.072 1.12984C241.074 1.1599 241.078 1.20523 241.083 1.26515C241.092 1.38499 241.106 1.56316 241.122 1.79414C241.154 2.25612 241.198 2.92916 241.241 3.76915C241.327 5.44971 241.411 7.79557 241.406 10.4547C241.396 15.7985 241.021 22.3111 239.61 27.2385L241.533 27.7891Z"
        fill="#306ED9" />
</svg>
    