<svg width="26" height="20" viewBox="0 0 26 20" fill="none" xmlns="http://www.w3.org/2000/svg">
    <path
        d="M21.9363 1.98751C20.2676 1.22355 18.506 0.681579 16.6965 0.375427C16.4489 0.818077 16.2248 1.27351 16.0253 1.73981C14.0978 1.44935 12.1377 1.44935 10.2102 1.73981C10.0106 1.27355 9.78653 0.818131 9.53902 0.375427C7.72834 0.684164 5.96559 1.22743 4.29525 1.99151C0.979193 6.89767 0.080262 11.682 0.529728 16.3984C2.47169 17.8332 4.64531 18.9244 6.95609 19.6245C7.47641 18.9247 7.93682 18.1823 8.33245 17.4052C7.58101 17.1245 6.85574 16.7783 6.16503 16.3704C6.34681 16.2386 6.5246 16.1027 6.6964 15.9709C8.7062 16.916 10.8998 17.4061 13.1208 17.4061C15.3417 17.4061 17.5353 16.916 19.5451 15.9709C19.7189 16.1127 19.8967 16.2486 20.0765 16.3704C19.3844 16.7789 18.6578 17.1259 17.9051 17.4072C18.3002 18.184 18.7607 18.9257 19.2814 19.6245C21.5942 18.9272 23.7695 17.8365 25.7118 16.4004C26.2392 10.9309 24.8109 6.19051 21.9363 1.98751ZM8.90177 13.4978C7.64926 13.4978 6.61449 12.3612 6.61449 10.9628C6.61449 9.5645 7.61331 8.41787 8.89778 8.41787C10.1823 8.41787 11.209 9.5645 11.1871 10.9628C11.1651 12.3612 10.1783 13.4978 8.90177 13.4978ZM17.3397 13.4978C16.0852 13.4978 15.0545 12.3612 15.0545 10.9628C15.0545 9.5645 16.0533 8.41787 17.3397 8.41787C18.6262 8.41787 19.645 9.5645 19.623 10.9628C19.6011 12.3612 18.6162 13.4978 17.3397 13.4978Z"
        fill="#1B2B8A" />
</svg>
    