<svg width="25" height="22" viewBox="0 0 25 22" fill="none" xmlns="http://www.w3.org/2000/svg">
    <path
        d="M21.1787 2H5.17871C4.07871 2 3.17871 3.0125 3.17871 4.25V17.75C3.17871 18.9875 4.07871 20 5.17871 20H21.1787C22.2787 20 23.1787 18.9875 23.1787 17.75V4.25C23.1787 3.0125 22.2787 2 21.1787 2ZM20.7787 6.78125L14.2387 11.3825C13.5887 11.8438 12.7687 11.8438 12.1187 11.3825L5.57871 6.78125C5.32871 6.60125 5.17871 6.2975 5.17871 5.97125C5.17871 5.2175 5.90871 4.7675 6.47871 5.16125L13.1787 9.875L19.8787 5.16125C20.4487 4.7675 21.1787 5.2175 21.1787 5.97125C21.1787 6.2975 21.0287 6.60125 20.7787 6.78125Z"
        fill="#1B2B8A" />
</svg>
    