<svg width="20" height="21" viewBox="0 0 20 21" fill="none" xmlns="http://www.w3.org/2000/svg">
    <path
        d="M11 3.5C10.7347 3.5 10.4804 3.60536 10.2929 3.79289C10.1053 3.98043 9.99996 4.23478 9.99996 4.5C9.99996 4.76522 10.1053 5.01957 10.2929 5.20711C10.4804 5.39464 10.7347 5.5 11 5.5H13.586L7.29296 11.793C7.19745 11.8852 7.12127 11.9956 7.06886 12.1176C7.01645 12.2396 6.98886 12.3708 6.98771 12.5036C6.98655 12.6364 7.01186 12.7681 7.06214 12.891C7.11242 13.0139 7.18667 13.1255 7.28056 13.2194C7.37446 13.3133 7.48611 13.3875 7.60901 13.4378C7.7319 13.4881 7.86358 13.5134 7.99636 13.5123C8.12914 13.5111 8.26036 13.4835 8.38236 13.4311C8.50437 13.3787 8.61471 13.3025 8.70696 13.207L15 6.914V9.5C15 9.76522 15.1053 10.0196 15.2929 10.2071C15.4804 10.3946 15.7347 10.5 16 10.5C16.2652 10.5 16.5195 10.3946 16.7071 10.2071C16.8946 10.0196 17 9.76522 17 9.5V4.5C17 4.23478 16.8946 3.98043 16.7071 3.79289C16.5195 3.60536 16.2652 3.5 16 3.5H11Z"
        fill="#1B2E8A" />
    <path
        d="M5 5.5C4.46957 5.5 3.96086 5.71071 3.58579 6.08579C3.21071 6.46086 3 6.96957 3 7.5V15.5C3 16.0304 3.21071 16.5391 3.58579 16.9142C3.96086 17.2893 4.46957 17.5 5 17.5H13C13.5304 17.5 14.0391 17.2893 14.4142 16.9142C14.7893 16.5391 15 16.0304 15 15.5V12.5C15 12.2348 14.8946 11.9804 14.7071 11.7929C14.5196 11.6054 14.2652 11.5 14 11.5C13.7348 11.5 13.4804 11.6054 13.2929 11.7929C13.1054 11.9804 13 12.2348 13 12.5V15.5H5V7.5H8C8.26522 7.5 8.51957 7.39464 8.70711 7.20711C8.89464 7.01957 9 6.76522 9 6.5C9 6.23478 8.89464 5.98043 8.70711 5.79289C8.51957 5.60536 8.26522 5.5 8 5.5H5Z"
        fill="#1B2E8A" />
</svg>
    