<svg width="25" height="24" viewBox="0 0 25 24" fill="none" xmlns="http://www.w3.org/2000/svg">
    <g clip-path="url(#clip0_1662_31050)">
        <path fill-rule="evenodd" clip-rule="evenodd"
            d="M12.4219 0C5.79428 0 0.421875 5.3808 0.421875 12.0204C0.421875 17.3304 3.85987 21.8364 8.62868 23.4252C9.22867 23.5356 9.44707 23.1648 9.44707 22.8456C9.44707 22.5612 9.43748 21.804 9.43148 20.802C6.09308 21.528 5.38868 19.1904 5.38868 19.1904C4.84387 17.8008 4.05667 17.4312 4.05667 17.4312C2.96707 16.6872 4.13948 16.7016 4.13948 16.7016C5.34308 16.7856 5.97668 17.94 5.97668 17.94C7.04708 19.776 8.78587 19.2456 9.46867 18.9384C9.57907 18.162 9.88868 17.6328 10.2319 17.3328C7.56788 17.0292 4.76587 15.9972 4.76587 11.3916C4.76587 10.08 5.23388 9.006 6.00068 8.166C5.87708 7.8624 5.46548 6.6396 6.11828 4.986C6.11828 4.986 7.12628 4.662 9.41827 6.2172C10.3972 5.95022 11.4072 5.81423 12.4219 5.8128C13.4419 5.8176 14.4679 5.9508 15.4267 6.2172C17.7175 4.662 18.7231 4.9848 18.7231 4.9848C19.3783 6.6396 18.9655 7.8624 18.8431 8.166C19.6111 9.006 20.0767 10.08 20.0767 11.3916C20.0767 16.0092 17.2699 17.0256 14.5975 17.3232C15.0283 17.694 15.4111 18.4272 15.4111 19.5492C15.4111 21.1548 15.3967 22.452 15.3967 22.8456C15.3967 23.1672 15.6127 23.5416 16.2223 23.424C18.6118 22.6225 20.6891 21.0904 22.1605 19.0441C23.6318 16.9977 24.4229 14.5408 24.4219 12.0204C24.4219 5.3808 19.0483 0 12.4219 0Z"
            fill="#1B2B8A" />
    </g>
    <defs>
        <clipPath id="clip0_1662_31050">
            <rect width="24" height="24" fill="white" transform="translate(0.421875)" />
        </clipPath>
    </defs>
</svg>
    