<svg width="74" height="52" viewBox="0 0 74 52" fill="none" xmlns="http://www.w3.org/2000/svg">
    <path
        d="M10.277 35V17.5455H12.9105V32.733H20.8196V35H10.277ZM29.1335 35.2642C27.9063 35.2642 26.8352 34.983 25.9205 34.4205C25.0057 33.858 24.2955 33.071 23.7898 32.0597C23.2841 31.0483 23.0312 29.8665 23.0312 28.5142C23.0312 27.1562 23.2841 25.9687 23.7898 24.9517C24.2955 23.9347 25.0057 23.1449 25.9205 22.5824C26.8352 22.0199 27.9063 21.7386 29.1335 21.7386C30.3608 21.7386 31.4318 22.0199 32.3466 22.5824C33.2614 23.1449 33.9716 23.9347 34.4773 24.9517C34.983 25.9687 35.2358 27.1562 35.2358 28.5142C35.2358 29.8665 34.983 31.0483 34.4773 32.0597C33.9716 33.071 33.2614 33.858 32.3466 34.4205C31.4318 34.983 30.3608 35.2642 29.1335 35.2642ZM29.142 33.125C29.9375 33.125 30.5966 32.9148 31.1193 32.4943C31.642 32.0739 32.0284 31.5142 32.2784 30.8153C32.5341 30.1165 32.6619 29.3466 32.6619 28.5057C32.6619 27.6705 32.5341 26.9034 32.2784 26.2045C32.0284 25.5 31.642 24.9347 31.1193 24.5085C30.5966 24.0824 29.9375 23.8693 29.142 23.8693C28.3409 23.8693 27.6761 24.0824 27.1477 24.5085C26.625 24.9347 26.2358 25.5 25.9801 26.2045C25.7301 26.9034 25.6051 27.6705 25.6051 28.5057C25.6051 29.3466 25.7301 30.1165 25.9801 30.8153C26.2358 31.5142 26.625 32.0739 27.1477 32.4943C27.6761 32.9148 28.3409 33.125 29.142 33.125ZM43.5689 40.1818C42.5291 40.1818 41.6342 40.0455 40.8842 39.7727C40.1399 39.5 39.532 39.1392 39.0604 38.6903C38.5888 38.2415 38.2365 37.75 38.0036 37.2159L40.1939 36.3125C40.3473 36.5625 40.5518 36.8267 40.8075 37.1051C41.0689 37.3892 41.4212 37.6307 41.8643 37.8295C42.3132 38.0284 42.8899 38.1278 43.5945 38.1278C44.5604 38.1278 45.3587 37.892 45.9893 37.4205C46.62 36.9545 46.9354 36.2102 46.9354 35.1875V32.6136H46.7734C46.62 32.892 46.3984 33.2017 46.1087 33.5426C45.8246 33.8835 45.4325 34.179 44.9325 34.429C44.4325 34.679 43.782 34.804 42.9808 34.804C41.9467 34.804 41.0149 34.5625 40.1854 34.0795C39.3615 33.5909 38.7081 32.8722 38.2251 31.9233C37.7479 30.9687 37.5092 29.7955 37.5092 28.4034C37.5092 27.0114 37.745 25.8182 38.2166 24.8239C38.6939 23.8295 39.3473 23.0682 40.1768 22.5398C41.0064 22.0057 41.9467 21.7386 42.9979 21.7386C43.8104 21.7386 44.4666 21.875 44.9666 22.1477C45.4666 22.4148 45.8558 22.7273 46.1342 23.0852C46.4183 23.4432 46.6371 23.7585 46.7905 24.0312H46.978V21.9091H49.4751V35.2898C49.4751 36.4148 49.2138 37.3381 48.6911 38.0597C48.1683 38.7813 47.4609 39.3153 46.5689 39.6619C45.6825 40.0085 44.6825 40.1818 43.5689 40.1818ZM43.5433 32.6903C44.2763 32.6903 44.8956 32.5199 45.4013 32.179C45.9126 31.8324 46.299 31.3381 46.5604 30.696C46.8274 30.0483 46.9609 29.2727 46.9609 28.3693C46.9609 27.4886 46.8303 26.7131 46.5689 26.0426C46.3075 25.3722 45.924 24.8494 45.4183 24.4744C44.9126 24.0937 44.2876 23.9034 43.5433 23.9034C42.7763 23.9034 42.1371 24.1023 41.6257 24.5C41.1143 24.892 40.728 25.4261 40.4666 26.1023C40.2109 26.7784 40.0831 27.5341 40.0831 28.3693C40.0831 29.2273 40.2138 29.9801 40.4751 30.6278C40.7365 31.2756 41.1229 31.7812 41.6342 32.1449C42.1513 32.5085 42.7876 32.6903 43.5433 32.6903ZM58.407 35.2642C57.1797 35.2642 56.1087 34.983 55.1939 34.4205C54.2791 33.858 53.5689 33.071 53.0632 32.0597C52.5575 31.0483 52.3047 29.8665 52.3047 28.5142C52.3047 27.1562 52.5575 25.9687 53.0632 24.9517C53.5689 23.9347 54.2791 23.1449 55.1939 22.5824C56.1087 22.0199 57.1797 21.7386 58.407 21.7386C59.6342 21.7386 60.7053 22.0199 61.62 22.5824C62.5348 23.1449 63.245 23.9347 63.7507 24.9517C64.2564 25.9687 64.5092 27.1562 64.5092 28.5142C64.5092 29.8665 64.2564 31.0483 63.7507 32.0597C63.245 33.071 62.5348 33.858 61.62 34.4205C60.7053 34.983 59.6342 35.2642 58.407 35.2642ZM58.4155 33.125C59.2109 33.125 59.87 32.9148 60.3928 32.4943C60.9155 32.0739 61.3018 31.5142 61.5518 30.8153C61.8075 30.1165 61.9354 29.3466 61.9354 28.5057C61.9354 27.6705 61.8075 26.9034 61.5518 26.2045C61.3018 25.5 60.9155 24.9347 60.3928 24.5085C59.87 24.0824 59.2109 23.8693 58.4155 23.8693C57.6143 23.8693 56.9496 24.0824 56.4212 24.5085C55.8984 24.9347 55.5092 25.5 55.2536 26.2045C55.0036 26.9034 54.8786 27.6705 54.8786 28.5057C54.8786 29.3466 55.0036 30.1165 55.2536 30.8153C55.5092 31.5142 55.8984 32.0739 56.4212 32.4943C56.9496 32.9148 57.6143 33.125 58.4155 33.125Z"
        fill="black" />
</svg>
    