<svg width="14" height="14" viewBox="0 0 14 14" fill="none" xmlns="http://www.w3.org/2000/svg">
    <g clip-path="url(#clip0_1432_20955)">
        <path
            d="M13.4168 4.66667C13.4168 5.30833 12.8918 5.83333 12.2502 5.83333C12.1452 5.83333 12.046 5.82167 11.9527 5.7925L9.876 7.86333C9.90516 7.95667 9.91683 8.06167 9.91683 8.16667C9.91683 8.80833 9.39183 9.33333 8.75016 9.33333C8.1085 9.33333 7.5835 8.80833 7.5835 8.16667C7.5835 8.06167 7.59516 7.95667 7.62433 7.86333L6.13683 6.37583C6.0435 6.405 5.9385 6.41667 5.8335 6.41667C5.7285 6.41667 5.6235 6.405 5.53016 6.37583L2.876 9.03583C2.90516 9.12917 2.91683 9.22833 2.91683 9.33333C2.91683 9.975 2.39183 10.5 1.75016 10.5C1.1085 10.5 0.583496 9.975 0.583496 9.33333C0.583496 8.69167 1.1085 8.16667 1.75016 8.16667C1.85516 8.16667 1.95433 8.17833 2.04766 8.2075L4.70766 5.55333C4.6785 5.46 4.66683 5.355 4.66683 5.25C4.66683 4.60833 5.19183 4.08333 5.8335 4.08333C6.47516 4.08333 7.00016 4.60833 7.00016 5.25C7.00016 5.355 6.9885 5.46 6.95933 5.55333L8.44683 7.04083C8.54016 7.01167 8.64516 7 8.75016 7C8.85516 7 8.96016 7.01167 9.0535 7.04083L11.1243 4.96417C11.0952 4.87083 11.0835 4.77167 11.0835 4.66667C11.0835 4.025 11.6085 3.5 12.2502 3.5C12.8918 3.5 13.4168 4.025 13.4168 4.66667Z"
            fill="#233876" />
    </g>
    <defs>
        <clipPath id="clip0_1432_20955">
            <rect width="14" height="14" fill="white" />
        </clipPath>
    </defs>
</svg>
    