<svg width="121" height="49" viewBox="0 0 121 49" fill="none" xmlns="http://www.w3.org/2000/svg">
    <rect x="36.9053" y="0.404846" width="83.5166" height="47.6012" rx="5.56003" fill="#003057" />
    <path fill-rule="evenodd" clip-rule="evenodd"
        d="M6.59358 0.164917C3.47035 0.164917 0.938477 2.69679 0.938477 5.82002V42.591C0.938477 45.7142 3.47035 48.2461 6.59358 48.2461H16.4348H23.0407H48.1023V0.164917H23.0407H16.4348H6.59358Z"
        fill="#052CC0" />
    <path
        d="M59.2705 26.3431H63.6355C64.8669 26.3431 65.8324 26.7068 66.4619 27.3225C66.9798 27.8541 67.2732 28.5814 67.2732 29.4354V29.4629C67.2732 31.0717 66.3076 32.0373 64.9509 32.4284L67.5955 36.1364H65.5513L63.145 32.7233H60.9908V36.1364H59.2705V26.3431ZM63.5086 31.197C64.7401 31.197 65.5238 30.5538 65.5238 29.5607V29.5332C65.5238 28.4836 64.7691 27.9107 63.4949 27.9107H60.9908V31.1985H63.5086V31.197Z"
        fill="white" />
    <path
        d="M74.2537 26.2728H75.8488L80.1572 36.1363H78.3391L77.346 33.7712H72.7152L71.7084 36.1363H69.9453L74.2537 26.2728ZM76.7166 32.2465L75.0238 28.3292L73.3447 32.2465H76.7166Z"
        fill="white" />
    <path
        d="M82.9561 26.3431H86.6075C89.686 26.3431 91.8112 28.456 91.8112 31.2122V31.2397C91.8112 33.9959 89.6845 36.1363 86.6075 36.1363H82.9561V26.3431ZM84.6764 27.9091V34.5688H86.6075C88.6639 34.5688 90.0069 33.1846 90.0069 31.2672V31.2397C90.0069 29.3238 88.6639 27.9106 86.6075 27.9106H84.6764V27.9091Z"
        fill="white" />
    <path d="M96.5533 26.3431H94.833V36.1363H96.5533V26.3431Z" fill="white" />
    <path
        d="M108.572 26.3431L105.159 31.1266L108.713 36.1348H106.684L104.096 32.4008L101.521 36.1348H99.5488L103.089 31.1557L99.6894 26.3431H101.718L104.152 29.8952L106.6 26.3431H108.572Z"
        fill="white" />
    <mask id="mask0_1662_31062" style="mask-type:alpha" maskUnits="userSpaceOnUse" x="0" y="0"
        width="49" height="49">
        <path fill-rule="evenodd" clip-rule="evenodd"
            d="M6.59358 0.164917C3.47035 0.164917 0.938477 2.69679 0.938477 5.82002V42.4954C0.938477 45.6186 3.47035 48.1505 6.59358 48.1505H16.4354H23.0407H48.1029V0.164917H23.0407H16.4354H6.59358Z"
            fill="#052CC0" />
    </mask>
    <g mask="url(#mask0_1662_31062)">
        <g filter="url(#filter0_f_1662_31062)">
            <path
                d="M-2.54122 -23.5291L-11.5292 6.72147L-5.32008 12.7749C-0.936764 13.2719 -20.0035 10.9943 -8.19552 15.9866C3.61249 20.979 -5.95394 26.1822 -15.7905 31.0874C-12.1239 31.2311 -4.86776 33.585 23.4431 18.43C51.754 3.27499 -1.77495 -4.04545 -2.54122 -23.5291Z"
                fill="#20E4FF" />
        </g>
        <g filter="url(#filter1_f_1662_31062)">
            <path
                d="M38.5206 33.9578L49.902 17.4987L46.389 1.00596C42.6767 3.18061 18.1063 16.7107 0.495295 20.5939C-17.1157 24.477 -17.1982 0.967781 -21.4096 -7.16719C-23.948 -5.20102 -25.4544 4.72486 -11.1728 28.6991C3.10885 52.6733 27.9068 42.1941 38.5206 33.9578Z"
                fill="#060F8F" />
        </g>
        <g filter="url(#filter2_f_1662_31062)">
            <path
                d="M84.5964 43.977L59.2692 25.0921L51.4297 28.811C49.4454 32.7432 58.1853 15.6785 49.4056 25.007C40.6258 34.3356 39.0452 23.5774 37.8382 12.6695C36.4342 16.0529 31.7102 22.0325 36.1591 53.786C40.608 85.5394 66.0151 37.9516 84.5964 43.977Z"
                fill="#FF43CA" />
        </g>
        <g filter="url(#filter3_f_1662_31062)">
            <path
                d="M97.7028 43.977L72.3757 25.0921L64.5362 28.811C62.5519 32.7432 71.2917 15.6785 62.512 25.007C53.7323 34.3356 52.1516 23.5774 50.9446 12.6695C49.5406 16.0529 44.8166 22.0325 49.2655 53.786C53.7144 85.5394 79.1216 37.9516 97.7028 43.977Z"
                fill="#FF43CA" />
        </g>
        <g filter="url(#filter4_f_1662_31062)">
            <path
                d="M35.9469 54.6786L10.6198 35.7936L2.7803 39.5125C0.796034 43.4447 9.53589 26.3801 0.756154 35.7086C-8.02358 45.0371 -9.60422 34.279 -10.8112 23.371C-12.2152 26.7544 -16.9393 32.734 -12.4903 64.4875C-8.04142 96.241 17.3657 48.6531 35.9469 54.6786Z"
                fill="#00C389" />
        </g>
    </g>
    <g filter="url(#filter5_d_1662_31062)">
        <path
            d="M22.1561 34.7344C21.6992 34.7344 21.2647 34.5161 20.9923 34.1401L15.3036 26.2566H11.5938V23.3864H16.0375C16.499 23.3864 16.9312 23.607 17.2014 23.9807L21.85 30.4212L28.9433 14.2175C29.173 13.6952 29.6885 13.3575 30.258 13.3575H39.1253V16.2278H31.1967L23.4708 33.8745C23.2637 34.3472 22.8202 34.6714 22.307 34.7254C22.2597 34.7322 22.2079 34.7344 22.1561 34.7344Z"
            fill="white" />
    </g>
    <path fill-rule="evenodd" clip-rule="evenodd"
        d="M1.88099 5.82L1.88099 42.591C1.88099 45.1937 3.9909 47.3036 6.59359 47.3036L114.767 47.3036C117.369 47.3036 119.479 45.1937 119.479 42.591L119.479 5.82C119.479 3.21731 117.369 1.10742 114.767 1.10742L6.59357 1.10742C3.99088 1.10742 1.88099 3.21732 1.88099 5.82ZM0.938476 42.591C0.938476 45.7142 3.47036 48.2461 6.59359 48.2461L114.767 48.2461C117.89 48.2461 120.422 45.7142 120.422 42.591L120.422 5.82C120.422 2.69677 117.89 0.1649 114.767 0.164901L6.59357 0.164905C3.47035 0.164905 0.938475 2.69678 0.938475 5.82L0.938476 42.591Z"
        fill="#003057" />
    <line x1="48.5738" y1="0.164917" x2="48.5738" y2="48.2461" stroke="#003057"
        stroke-width="0.942517" />
    <path fill-rule="evenodd" clip-rule="evenodd"
        d="M48.3663 47.1184L48.3663 1.23322L48.9863 1.23322L48.9863 47.1184L48.3663 47.1184Z"
        fill="#003057" />
    <path
        d="M60.8327 18.0949H62.3129L63.8524 21.2804H65.5932L63.8998 17.9173C64.9182 17.5739 65.4392 16.7094 65.4392 15.5726C65.4392 14.0095 64.5037 13.0147 62.9998 13.0147H59.2695V21.2804H60.8327V18.0949ZM60.8327 16.7805V14.3766H62.8458C63.4498 14.3766 63.8169 14.6963 63.8169 15.3002V15.845C63.8169 16.4489 63.4498 16.7805 62.8458 16.7805H60.8327Z"
        fill="white" />
    <path
        d="M66.9238 13.0147V17.8936C66.9238 20.3212 67.7646 21.4225 70.0856 21.4225C72.4067 21.4225 73.2711 20.3212 73.2711 17.8936V13.0147H71.7317V18.0949C71.7317 19.3857 71.2817 20.037 70.0975 20.037C68.9133 20.037 68.4633 19.3857 68.4633 18.0949V13.0147H66.9238Z"
        fill="white" />
    <path
        d="M80.0143 21.2804H81.7314V13.0147H80.2512V18.9713H80.2156L79.363 17.2542L76.8762 13.0147H75.1591V21.2804H76.6393V15.3239H76.6749L77.5275 17.041L80.0143 21.2804Z"
        fill="white" />
    <path
        d="M86.2403 21.4225C88.2179 21.4225 89.3429 20.3568 89.3429 18.7936C89.3429 17.4318 88.5613 16.6857 86.8916 16.3897L86.1218 16.2476C85.3284 16.1055 84.9732 15.845 84.9732 15.2173C84.9732 14.6016 85.435 14.2463 86.3231 14.2463C87.1995 14.2463 87.7679 14.5897 88.1705 15.0989L89.2363 14.0923C88.5731 13.2989 87.6494 12.8726 86.406 12.8726C84.5587 12.8726 83.41 13.8318 83.41 15.3121C83.41 16.6621 84.2153 17.4555 85.885 17.716L86.6666 17.8344C87.531 17.9884 87.7916 18.3318 87.7916 18.8884C87.7916 19.587 87.2942 20.0489 86.335 20.0489C85.4824 20.0489 84.7837 19.6936 84.2153 19.0305L83.1613 20.0489C83.86 20.866 84.8311 21.4225 86.2403 21.4225Z"
        fill="white" />
    <path
        d="M96.9532 21.4225C99.1321 21.4225 100.553 19.9423 100.553 17.1476C100.553 14.3529 99.1321 12.8726 96.9532 12.8726C94.7861 12.8726 93.3532 14.3529 93.3532 17.1476C93.3532 19.9423 94.7861 21.4225 96.9532 21.4225ZM96.9532 20.037C95.769 20.037 95.0111 19.1962 95.0111 17.7871V16.5081C95.0111 15.0989 95.769 14.2581 96.9532 14.2581C98.1374 14.2581 98.8953 15.0989 98.8953 16.5081V17.7871C98.8953 19.1962 98.1374 20.037 96.9532 20.037Z"
        fill="white" />
    <path
        d="M106.994 21.2804H108.711V13.0147H107.231V18.9713H107.196L106.343 17.2542L103.856 13.0147H102.139V21.2804H103.619V15.3239H103.655L104.507 17.041L106.994 21.2804Z"
        fill="white" />
    <defs>
        <filter id="filter0_f_1662_31062" x="-35.0373" y="-42.7763" width="85.9828" height="93.3251"
            filterUnits="userSpaceOnUse" color-interpolation-filters="sRGB">
            <feFlood flood-opacity="0" result="BackgroundImageFix" />
            <feBlend mode="normal" in="SourceGraphic" in2="BackgroundImageFix" result="shape" />
            <feGaussianBlur stdDeviation="9.62362" result="effect1_foregroundBlur_1662_31062" />
        </filter>
        <filter id="filter1_f_1662_31062" x="-41.6159" y="-25.7196" width="110.071" height="87.7564"
            filterUnits="userSpaceOnUse" color-interpolation-filters="sRGB">
            <feFlood flood-opacity="0" result="BackgroundImageFix" />
            <feBlend mode="normal" in="SourceGraphic" in2="BackgroundImageFix" result="shape" />
            <feGaussianBlur stdDeviation="9.27619" result="effect1_foregroundBlur_1662_31062" />
        </filter>
        <filter id="filter2_f_1662_31062" x="15.0467" y="-6.57775" width="88.7972" height="90.6295"
            filterUnits="userSpaceOnUse" color-interpolation-filters="sRGB">
            <feFlood flood-opacity="0" result="BackgroundImageFix" />
            <feBlend mode="normal" in="SourceGraphic" in2="BackgroundImageFix" result="shape" />
            <feGaussianBlur stdDeviation="9.62362" result="effect1_foregroundBlur_1662_31062" />
        </filter>
        <filter id="filter3_f_1662_31062" x="28.1531" y="-6.57775" width="88.7972" height="90.6295"
            filterUnits="userSpaceOnUse" color-interpolation-filters="sRGB">
            <feFlood flood-opacity="0" result="BackgroundImageFix" />
            <feBlend mode="normal" in="SourceGraphic" in2="BackgroundImageFix" result="shape" />
            <feGaussianBlur stdDeviation="9.62362" result="effect1_foregroundBlur_1662_31062" />
        </filter>
        <filter id="filter4_f_1662_31062" x="-33.6027" y="4.12379" width="88.7972" height="90.6295"
            filterUnits="userSpaceOnUse" color-interpolation-filters="sRGB">
            <feFlood flood-opacity="0" result="BackgroundImageFix" />
            <feBlend mode="normal" in="SourceGraphic" in2="BackgroundImageFix" result="shape" />
            <feGaussianBlur stdDeviation="9.62362" result="effect1_foregroundBlur_1662_31062" />
        </filter>
        <filter id="filter5_d_1662_31062" x="7.6223" y="10.1056" width="35.4742" height="29.3198"
            filterUnits="userSpaceOnUse" color-interpolation-filters="sRGB">
            <feFlood flood-opacity="0" result="BackgroundImageFix" />
            <feColorMatrix in="SourceAlpha" type="matrix"
                values="0 0 0 0 0 0 0 0 0 0 0 0 0 0 0 0 0 0 127 0" result="hardAlpha" />
            <feOffset dy="0.719523" />
            <feGaussianBlur stdDeviation="1.98573" />
            <feComposite in2="hardAlpha" operator="out" />
            <feColorMatrix type="matrix" values="0 0 0 0 0 0 0 0 0 0 0 0 0 0 0 0 0 0 0.25 0" />
            <feBlend mode="normal" in2="BackgroundImageFix" result="effect1_dropShadow_1662_31062" />
            <feBlend mode="normal" in="SourceGraphic" in2="effect1_dropShadow_1662_31062"
                result="shape" />
        </filter>
    </defs>
</svg>
    