<svg width="25" height="26" viewBox="0 0 25 26" fill="none" xmlns="http://www.w3.org/2000/svg">
    <g clip-path="url(#clip0_1662_31052)">
        <path fill-rule="evenodd" clip-rule="evenodd"
            d="M18.8062 22.779C18.9648 22.8919 19.1486 22.9641 19.3416 22.9894C19.5346 23.0147 19.7309 22.9922 19.9132 22.924C20.0944 22.8556 20.2556 22.7429 20.3821 22.5961C20.5085 22.4494 20.5962 22.2734 20.6372 22.084C21.5062 18 23.6142 7.66302 24.4052 3.94802C24.4345 3.80997 24.4258 3.66656 24.38 3.53308C24.3342 3.39959 24.253 3.28103 24.1452 3.19002C24.0368 3.09794 23.9058 3.03643 23.7657 3.01182C23.6256 2.98721 23.4815 3.0004 23.3482 3.05002C19.1552 4.60202 6.24218 9.44702 0.964183 11.4C0.80154 11.4597 0.661729 11.5689 0.564482 11.7122C0.467234 11.8556 0.41746 12.0259 0.422183 12.199C0.434183 12.553 0.672183 12.86 1.01518 12.963C3.38218 13.671 6.48918 14.656 6.48918 14.656C6.48918 14.656 7.94118 19.041 8.69818 21.271C8.79318 21.551 9.01218 21.771 9.30118 21.847C9.44284 21.8839 9.59153 21.8842 9.73335 21.848C9.87518 21.8118 10.0055 21.7402 10.1122 21.64L13.2082 18.717C13.2082 18.717 16.7802 21.336 18.8062 22.779ZM7.79618 14.102L9.47518 19.64L9.84818 16.133L20.0332 6.94702C20.0855 6.90009 20.118 6.83503 20.1241 6.76503C20.1302 6.69504 20.1095 6.62533 20.0662 6.57002C20.0226 6.51459 19.96 6.47734 19.8905 6.46551C19.821 6.45368 19.7496 6.46812 19.6902 6.50602L7.79618 14.102Z"
            fill="#1B2B8A" />
    </g>
    <defs>
        <clipPath id="clip0_1662_31052">
            <rect width="24" height="26" fill="white" transform="translate(0.421875)" />
        </clipPath>
    </defs>
</svg>
    