<svg width="25" height="24" viewBox="0 0 25 24" fill="none" xmlns="http://www.w3.org/2000/svg">
    <g clip-path="url(#clip0_1662_31048)">
        <path
            d="M7.97203 21.75C17.0264 21.75 21.9802 14.2468 21.9802 7.74192C21.9802 7.53098 21.9755 7.31536 21.9661 7.10442C22.9298 6.40752 23.7614 5.54432 24.4219 4.55536C23.5244 4.95466 22.5715 5.21544 21.5958 5.3288C22.6232 4.71297 23.3924 3.74553 23.7609 2.60583C22.7944 3.17862 21.7375 3.58267 20.6353 3.80067C19.8927 3.01162 18.9109 2.48918 17.8416 2.31411C16.7723 2.13905 15.6751 2.32111 14.7196 2.83216C13.7642 3.3432 13.0037 4.15477 12.5557 5.14137C12.1078 6.12798 11.9973 7.23468 12.2414 8.29036C10.2844 8.19215 8.36981 7.68377 6.62186 6.79816C4.8739 5.91255 3.33157 4.6695 2.09484 3.14958C1.46627 4.2333 1.27393 5.51571 1.55691 6.73615C1.83988 7.9566 2.57694 9.02351 3.61828 9.72005C2.8365 9.69523 2.07185 9.48474 1.3875 9.10598V9.16692C1.3868 10.3042 1.77997 11.4066 2.50018 12.2868C3.2204 13.167 4.2232 13.7706 5.33812 13.995C4.61393 14.1932 3.85386 14.2221 3.11672 14.0794C3.43133 15.0575 4.04345 15.913 4.86765 16.5264C5.69184 17.1398 6.687 17.4807 7.71422 17.5013C5.9703 18.8712 3.81605 19.6142 1.59844 19.6107C1.20516 19.6101 0.812274 19.586 0.421875 19.5385C2.67473 20.9838 5.29541 21.7514 7.97203 21.75Z"
            fill="#1B2B8A" />
    </g>
    <defs>
        <clipPath id="clip0_1662_31048">
            <rect width="24" height="24" fill="white" transform="translate(0.421875)" />
        </clipPath>
    </defs>
</svg>
    